STARTFONT 2.1
COMMENT
COMMENT Converted from OpenType font "Q:\font stuff\winfont\Nanosecond Thick BRK.ttf" by "otf2bdf 3.0".
COMMENT
FONT -FreeType-Nanosecond Thick BRK-Medium-R-Normal--100-1000-72-72-P-376-ISO10646-1
SIZE 100 72 72
FONTBOUNDINGBOX 73 100 0 -15
STARTPROPERTIES 19
FOUNDRY "FreeType"
FAMILY_NAME "Nanosecond Thick BRK"
WEIGHT_NAME "Medium"
SLANT "R"
SETWIDTH_NAME "Normal"
ADD_STYLE_NAME ""
PIXEL_SIZE 100
POINT_SIZE 1000
RESOLUTION_X 72
RESOLUTION_Y 72
SPACING "P"
AVERAGE_WIDTH 376
CHARSET_REGISTRY "ISO10646"
CHARSET_ENCODING "1"
FONT_ASCENT 85
FONT_DESCENT 14
COPYRIGHT "ÆNIGMA FONTS   [e-mail]  kentpw@norwich.net"
_OTF_FONTFILE "Q:\font stuff\winfont\Nanosecond Thick BRK.ttf"
_OTF_PSNAME "NanosecondThickBRK"
ENDPROPERTIES
CHARS 99
STARTCHAR 0020
ENCODING 32
SWIDTH 460 0
DWIDTH 46 0
BBX 0 0 0 0
BITMAP
ENDCHAR
STARTCHAR 0021
ENCODING 33
SWIDTH 160 0
DWIDTH 16 0
BBX 11 70 3 0
BITMAP
1F00
3F80
7FC0
FFE0
FFE0
FFE0
FFE0
FFE0
FFE0
FFE0
FFE0
FFE0
FFE0
FFE0
FFE0
FFE0
FFE0
FFE0
FFE0
FFE0
FFE0
FFE0
FFE0
FFE0
FFE0
FFE0
FFE0
FFE0
FFE0
FFE0
FFE0
FFE0
FFE0
FFE0
FFE0
FFE0
FFE0
FFE0
FFE0
FFE0
FFE0
FFE0
FFE0
FFE0
FFE0
FFE0
FFE0
FFE0
FFE0
FFE0
FFE0
FFE0
7FC0
7FC0
3F80
0E00
0000
0000
0000
1F00
3F80
7FC0
FFE0
FFE0
FFE0
FFE0
FFE0
7FC0
3F80
1F00
ENDCHAR
STARTCHAR 0022
ENCODING 34
SWIDTH 310 0
DWIDTH 31 0
BBX 26 26 2 43
BITMAP
0F003E00
3FC07F00
7FE0FF80
FFF1FFC0
FFF1FFC0
FFF1FFC0
FFF1FFC0
FFF1FFC0
FFF1FFC0
FFF1FFC0
FFF1FFC0
FFF1FFC0
FFF1FFC0
FFF1FFC0
FFF1FFC0
FFF1FFC0
FFF1FFC0
FFF1FFC0
FFF1FFC0
FFF1FFC0
FFF1FFC0
FFF1FFC0
FFF1FFC0
7FE0FF80
3FC07F00
1F803E00
ENDCHAR
STARTCHAR 0023
ENCODING 35
SWIDTH 510 0
DWIDTH 51 0
BBX 47 70 2 0
BITMAP
0007E00FC000
000FF01FE000
001FF83FF000
003FFC7FF800
003FFC7FF800
003FFC7FF800
003FFC7FF800
003FFC7FF800
003FFC7FF800
003FFC7FF800
003FFC7FF800
003FFC7FF800
003FFC7FF800
003FFC7FF800
0FFFFFFFFFE0
3FFFFFFFFFF8
7FFFFFFFFFFC
7FFFFFFFFFFC
FFFFFFFFFFFE
FFFFFFFFFFFE
FFFFFFFFFFFE
FFFFFFFFFFFE
7FFFFFFFFFFC
7FFFFFFFFFFC
3FFFFFFFFFF8
0FFFFFFFFFE0
003FFC7FF800
003FFC7FF800
003FFC7FF800
003FFC7FF800
003FFC7FF800
003FFC7FF800
003FFC7FF800
003FFC7FF800
003FFC7FF800
003FFC7FF800
003FFC7FF800
003FFC7FF800
003FFC7FF800
003FFC7FF800
003FFC7FF800
003FFC7FF800
003FFC7FF800
003FFC7FF800
0FFFFFFFFFE0
3FFFFFFFFFF8
7FFFFFFFFFFC
7FFFFFFFFFFC
FFFFFFFFFFFE
FFFFFFFFFFFE
FFFFFFFFFFFE
FFFFFFFFFFFE
7FFFFFFFFFFC
7FFFFFFFFFFC
3FFFFFFFFFF8
0FFFFFFFFFE0
003FFC7FF800
003FFC7FF800
003FFC7FF800
003FFC7FF800
003FFC7FF800
003FFC7FF800
003FFC7FF800
003FFC7FF800
003FFC7FF800
003FFC7FF800
003FFC7FF800
001FF83FF000
000FF01FE000
0007C00F8000
ENDCHAR
STARTCHAR 0024
ENCODING 36
SWIDTH 460 0
DWIDTH 46 0
BBX 41 100 2 -15
BITMAP
00003E000000
00007F800000
0000FF800000
0001FFC00000
0001FFC00000
0001FFC00000
0001FFC00000
0001FFC00000
0001FFC00000
0001FFC00000
0001FFC00000
0001FFC00000
0001FFC00000
0001FFC00000
0001FFC00000
0003FFE00000
001FFFFC0000
007FFFFF0000
00FFFFFF8000
01FFFFFFC000
03FFFFFFE000
07FFFFFFF000
0FFFFFFFF800
1FFFFFFFFC00
1FFFFFFFFC00
3FFFFFFFFE00
3FFFC0FFFE00
7FFF003FFF00
7FFC000FFF00
7FFC000FFF00
FFF80007FF80
FFF80007FF80
FFF00003FF80
FFF00003FF80
FFF00003FF80
FFF00003FF80
FFF00003FF80
FFF00001FF00
FFF00001FF00
FFF80000FE00
7FF800003800
7FFC00000000
7FFE00000000
3FFF80000000
3FFFFFC00000
1FFFFFF80000
0FFFFFFE0000
0FFFFFFF8000
07FFFFFFC000
03FFFFFFE000
01FFFFFFF000
00FFFFFFF800
003FFFFFF800
000FFFFFFC00
0000FFFFFE00
000000FFFE00
0000003FFF00
0000000FFF00
0600000FFF00
3FC00007FF00
7FE00007FF80
7FE00003FF80
FFF00003FF80
FFF00003FF80
FFF00003FF80
FFF00003FF80
FFF00003FF80
FFF80007FF80
FFF80007FF80
7FF80007FF00
7FFC000FFF00
7FFE001FFF00
3FFF807FFF00
3FFFF3FFFE00
1FFFFFFFFE00
1FFFFFFFFC00
0FFFFFFFFC00
0FFFFFFFF800
07FFFFFFF000
03FFFFFFE000
01FFFFFFC000
00FFFFFF8000
003FFFFF0000
000FFFFC0000
0001FFE00000
0001FFE00000
0001FFE00000
0001FFE00000
0001FFE00000
0001FFE00000
0001FFE00000
0001FFE00000
0001FFE00000
0001FFE00000
0001FFE00000
0001FFE00000
0001FFC00000
0000FFC00000
00007F800000
00003E000000
ENDCHAR
STARTCHAR 0025
ENCODING 37
SWIDTH 460 0
DWIDTH 46 0
BBX 41 70 2 0
BITMAP
003F80007C00
01FFF000FE00
07FFF801FF00
0FFFFE03FF80
1FFFFF03FF80
3FFFFF03FF80
3FFFFF83FF80
7FFFFFC3FF80
7FFFFFC3FF80
FFFFFFE7FF80
FFFFFFE7FF00
FFF1FFE7FF00
FFF1FFEFFF00
FFF1FFEFFF00
FFFFFFFFFE00
FFFFFFFFFE00
FFFFFFFFFC00
7FFFFFFFFC00
7FFFFFFFF800
3FFFFFFFF800
3FFFFFFFF000
1FFFFFFFF000
0FFFFFFFE000
07FFFFFFE000
01FFE7FFC000
007F8FFFC000
00001FFF8000
00001FFF0000
00003FFF0000
00007FFE0000
00007FFC0000
0000FFFC0000
0001FFF80000
0001FFF00000
0003FFF00000
0007FFE00000
0007FFC00000
000FFFC00000
001FFF800000
001FFF000000
003FFF000000
007FFE000000
007FFC000000
00FFFC000000
00FFF8FF0000
01FFF3FFC000
03FFFFFFF000
03FFFFFFF800
07FFFFFFFC00
07FFFFFFFE00
0FFFFFFFFE00
0FFFFFFFFF00
1FFFFFFFFF00
1FFFFFFFFF80
3FFFFFFFFF80
3FFFFFF7FF80
3FFDFFE3FF80
7FFDFFE3FF80
7FF9FFF7FF80
7FF9FFFFFF80
FFF9FFFFFF80
FFF0FFFFFF00
FFF0FFFFFF00
FFF07FFFFE00
FFF07FFFFE00
FFF03FFFFC00
FFF01FFFF800
7FE00FFFF000
3FC003FFC000
0F8000FF0000
ENDCHAR
STARTCHAR 0026
ENCODING 38
SWIDTH 460 0
DWIDTH 46 0
BBX 41 100 2 -15
BITMAP
00001E000000
00007F800000
0000FFC00000
0001FFE00000
0001FFE00000
0001FFE00000
0001FFE00000
0001FFE00000
0001FFE00000
0001FFE00000
0001FFE00000
0001FFE00000
0001FFE00000
0001FFE00000
0001FFE00000
0001FFF00000
000FFFFC0000
003FFFFF0000
00FFFFFFC000
01FFFFFFE000
03FFFFFFF000
07FFFFFFF000
0FFFFFFFF800
1FFFFFFFFC00
1FFFFFFFFC00
3FFFFFFFFE00
3FFFC0FFFE00
7FFF003FFF00
7FFC000FFF00
7FFC000FFF00
7FF80007FF80
FFF80007FF80
FFF00003FF80
FFF00003FF80
FFF00003FF80
FFF00003FF80
FFF00003FF80
FFF00001FF00
FFF80001FF00
FFF80000FE00
7FFC00003800
7FFC00000000
7FFE00000000
3FFF80000000
3FFFFF000000
1FFFFF800000
1FFFFFC00000
0FFFFFE00000
07FFFFE00000
07FFFFE00000
07FFFFE00000
0FFFFFE00000
0FFFFFC00000
1FFFFFC00000
3FFFFF800000
3FFFF8000000
7FFF00000000
7FFE00000000
7FFC00000000
FFF800007C00
FFF80000FE00
FFF00001FF00
FFF00003FF80
FFF00003FF80
FFF00003FF80
FFF00003FF80
FFF00003FF80
FFF00003FF80
FFF80007FF80
FFF80007FF80
7FFC000FFF00
7FFE001FFF00
7FFF003FFF00
3FFFE1FFFE00
3FFFFFFFFE00
1FFFFFFFFC00
1FFFFFFFFC00
0FFFFFFFF800
07FFFFFFF000
03FFFFFFE000
01FFFFFFC000
00FFFFFF8000
003FFFFE0000
000FFFF80000
0001FFE00000
0001FFE00000
0001FFE00000
0001FFE00000
0001FFE00000
0001FFE00000
0001FFE00000
0001FFE00000
0001FFE00000
0001FFE00000
0001FFE00000
0001FFE00000
0001FFE00000
0000FFC00000
00007F800000
00003E000000
ENDCHAR
STARTCHAR 0027
ENCODING 39
SWIDTH 160 0
DWIDTH 16 0
BBX 11 26 3 44
BITMAP
1F00
3F80
7FC0
FFE0
FFE0
FFE0
FFE0
FFE0
FFE0
FFE0
FFE0
FFE0
FFE0
FFE0
FFE0
FFE0
FFE0
FFE0
FFE0
FFE0
FFE0
FFE0
FFE0
7FC0
3F80
1F00
ENDCHAR
STARTCHAR 0028
ENCODING 40
SWIDTH 310 0
DWIDTH 31 0
BBX 27 70 2 0
BITMAP
0000FE00
0007FF80
001FFFC0
007FFFC0
00FFFFE0
03FFFFE0
07FFFFE0
0FFFFFC0
1FFFFFC0
1FFFFF80
3FFFFF00
3FFFF000
7FFF0000
7FFE0000
7FFC0000
FFF80000
FFF80000
FFF00000
FFF00000
FFF00000
FFF00000
FFF00000
FFF00000
FFF00000
FFF00000
FFF00000
FFF00000
FFF00000
FFF00000
FFF00000
FFF00000
FFF00000
FFF00000
FFF00000
FFF00000
FFF00000
FFF00000
FFF00000
FFF00000
FFF00000
FFF00000
FFF00000
FFF00000
FFF00000
FFF00000
FFF00000
FFF00000
FFF00000
FFF00000
FFF00000
FFF00000
FFF00000
FFF00000
FFF80000
7FF80000
7FFC0000
7FFC0000
7FFE0000
3FFF8000
3FFFFE00
1FFFFF80
0FFFFFC0
0FFFFFC0
07FFFFE0
03FFFFE0
01FFFFE0
007FFFC0
003FFFC0
000FFF80
0000FE00
ENDCHAR
STARTCHAR 0029
ENCODING 41
SWIDTH 310 0
DWIDTH 31 0
BBX 26 70 2 0
BITMAP
0FE00000
3FFC0000
7FFF0000
7FFFC000
FFFFE000
FFFFF000
FFFFF800
FFFFFC00
7FFFFE00
3FFFFE00
1FFFFF00
01FFFF00
001FFF80
000FFF80
0007FF80
0003FFC0
0003FFC0
0001FFC0
0001FFC0
0001FFC0
0001FFC0
0001FFC0
0001FFC0
0001FFC0
0001FFC0
0001FFC0
0001FFC0
0001FFC0
0001FFC0
0001FFC0
0001FFC0
0001FFC0
0001FFC0
0001FFC0
0001FFC0
0001FFC0
0001FFC0
0001FFC0
0001FFC0
0001FFC0
0001FFC0
0001FFC0
0001FFC0
0001FFC0
0001FFC0
0001FFC0
0001FFC0
0001FFC0
0001FFC0
0001FFC0
0001FFC0
0001FFC0
0001FFC0
0003FFC0
0003FF80
0007FF80
0007FF80
001FFF80
007FFF00
0FFFFF00
3FFFFE00
7FFFFE00
7FFFFC00
FFFFF800
FFFFF000
FFFFE000
7FFFC000
7FFF0000
3FFC0000
0FE00000
ENDCHAR
STARTCHAR 002A
ENCODING 42
SWIDTH 450 0
DWIDTH 45 0
BBX 40 38 2 32
BITMAP
00003C0000
0000FF0000
0001FF8000
0003FFC000
0003FFC000
0003FFC000
0003FFC000
0003FFC000
0003FFC000
0003FFC000
0F03FFC0F0
3FE3FFC7FC
7FFFFFFFFE
7FFFFFFFFF
FFFFFFFFFF
FFFFFFFFFF
FFFFFFFFFF
FFFFFFFFFF
FFFFFFFFFE
7FFFFFFFFE
3FFFFFFFFC
0FFFFFFFE0
01FFFFFF00
003FFFFC00
003FFFFC00
007FFFFE00
00FFFFFF00
01FFFFFF80
01FFFFFF80
03FFFFFFC0
03FFFFFFC0
07FFE7FFE0
07FFC3FFE0
07FF81FFC0
03FF81FFC0
03FF00FFC0
01FE007F80
0078003E00
ENDCHAR
STARTCHAR 002B
ENCODING 43
SWIDTH 460 0
DWIDTH 46 0
BBX 42 41 2 15
BITMAP
00001E000000
00007F800000
0000FFC00000
0001FFE00000
0001FFE00000
0001FFE00000
0001FFE00000
0001FFE00000
0001FFE00000
0001FFE00000
0001FFE00000
0001FFE00000
0001FFE00000
0001FFE00000
0001FFE00000
0FFFFFFFFC00
3FFFFFFFFF00
7FFFFFFFFF80
7FFFFFFFFF80
FFFFFFFFFFC0
FFFFFFFFFFC0
FFFFFFFFFFC0
7FFFFFFFFF80
7FFFFFFFFF80
3FFFFFFFFF00
1FFFFFFFFC00
0001FFE00000
0001FFE00000
0001FFE00000
0001FFE00000
0001FFE00000
0001FFE00000
0001FFE00000
0001FFE00000
0001FFE00000
0001FFE00000
0001FFE00000
0001FFE00000
0000FFC00000
00007F800000
00001E000000
ENDCHAR
STARTCHAR 002C
ENCODING 44
SWIDTH 170 0
DWIDTH 17 0
BBX 12 26 2 -15
BITMAP
1F00
3FC0
7FE0
FFF0
FFF0
FFF0
FFF0
FFF0
FFF0
FFF0
FFF0
FFF0
FFF0
FFF0
FFF0
FFF0
FFF0
FFF0
FFF0
FFF0
FFF0
FFF0
FFF0
7FE0
3FC0
1F00
ENDCHAR
STARTCHAR 002D
ENCODING 45
SWIDTH 460 0
DWIDTH 46 0
BBX 42 11 2 30
BITMAP
0FFFFFFFFC00
3FFFFFFFFF00
7FFFFFFFFF80
7FFFFFFFFF80
7FFFFFFFFF80
FFFFFFFFFFC0
7FFFFFFFFF80
7FFFFFFFFF80
7FFFFFFFFF80
3FFFFFFFFF00
0FFFFFFFFC00
ENDCHAR
STARTCHAR 002E
ENCODING 46
SWIDTH 160 0
DWIDTH 16 0
BBX 11 11 3 0
BITMAP
1F00
3F80
7FC0
FFE0
FFE0
FFE0
FFE0
FFE0
7FC0
3F80
1F00
ENDCHAR
STARTCHAR 002F
ENCODING 47
SWIDTH 460 0
DWIDTH 46 0
BBX 42 70 2 0
BITMAP
000000007C00
00000000FF00
00000001FF80
00000003FF80
00000003FF80
00000003FFC0
00000003FF80
00000003FF80
00000003FF80
00000007FF80
00000007FF80
00000007FF80
0000000FFF00
0000000FFF00
0000001FFF00
0000001FFE00
0000003FFE00
0000007FFC00
0000007FFC00
000000FFF800
000000FFF800
000001FFF000
000003FFF000
000003FFE000
000007FFE000
00000FFFC000
00000FFF8000
00001FFF8000
00003FFF0000
00003FFF0000
00007FFE0000
0000FFFC0000
0000FFFC0000
0001FFF80000
0001FFF00000
0003FFF00000
0007FFE00000
0007FFC00000
000FFFC00000
001FFF800000
001FFF000000
003FFF000000
007FFE000000
007FFC000000
00FFFC000000
01FFF8000000
01FFF0000000
03FFF0000000
03FFE0000000
07FFC0000000
07FFC0000000
0FFF80000000
0FFF80000000
1FFF00000000
1FFF00000000
3FFE00000000
3FFC00000000
3FFC00000000
7FFC00000000
7FF800000000
7FF800000000
7FF000000000
7FF000000000
7FF000000000
FFF000000000
7FF000000000
7FF000000000
7FE000000000
3FC000000000
0F8000000000
ENDCHAR
STARTCHAR 0030
ENCODING 48
SWIDTH 460 0
DWIDTH 46 0
BBX 41 70 2 0
BITMAP
0001FFC00000
000FFFF80000
003FFFFE0000
00FFFFFF8000
01FFFFFFC000
03FFFFFFE000
07FFFFFFF000
0FFFFFFFF800
0FFFFFFFF800
1FFFFFFFFC00
3FFFFFFFFE00
3FFFC0FFFE00
7FFF003FFF00
7FFC000FFF00
7FFC000FFF00
7FF80007FF00
FFF80007FF80
FFF00003FF80
FFF00003FF80
FFF00003FF80
FFF00003FF80
FFF00003FF80
FFF00003FF80
FFF00003FF80
FFF00003FF80
FFF00003FF80
FFF00003FF80
FFF00003FF80
FFF00003FF80
FFF00003FF80
FFF00003FF80
FFF00003FF80
FFF00003FF80
FFF00003FF80
FFF00003FF80
FFF00003FF80
FFF00003FF80
FFF00003FF80
FFF00003FF80
FFF00003FF80
FFF00003FF80
FFF00003FF80
FFF00003FF80
FFF00003FF80
FFF00003FF80
FFF00003FF80
FFF00003FF80
FFF00003FF80
FFF00003FF80
FFF00003FF80
FFF00003FF80
FFF00003FF80
FFF00003FF80
FFF80007FF80
FFF80007FF00
7FFC000FFF00
7FFC000FFF00
7FFE003FFF00
3FFF80FFFE00
3FFFFFFFFE00
1FFFFFFFFC00
1FFFFFFFF800
0FFFFFFFF800
07FFFFFFF000
03FFFFFFE000
01FFFFFFC000
00FFFFFF8000
003FFFFE0000
000FFFF80000
0001FFC00000
ENDCHAR
STARTCHAR 0031
ENCODING 49
SWIDTH 160 0
DWIDTH 16 0
BBX 11 70 3 0
BITMAP
1F00
3F80
7FC0
FFE0
FFE0
FFE0
FFE0
FFE0
FFE0
FFE0
FFE0
FFE0
FFE0
FFE0
FFE0
FFE0
FFE0
FFE0
FFE0
FFE0
FFE0
FFE0
FFE0
FFE0
FFE0
FFE0
FFE0
FFE0
FFE0
FFE0
FFE0
FFE0
FFE0
FFE0
FFE0
FFE0
FFE0
FFE0
FFE0
FFE0
FFE0
FFE0
FFE0
FFE0
FFE0
FFE0
FFE0
FFE0
FFE0
FFE0
FFE0
FFE0
FFE0
FFE0
FFE0
FFE0
FFE0
FFE0
FFE0
FFE0
FFE0
FFE0
FFE0
FFE0
FFE0
FFE0
FFE0
7FC0
3F80
1F00
ENDCHAR
STARTCHAR 0032
ENCODING 50
SWIDTH 460 0
DWIDTH 46 0
BBX 42 70 2 0
BITMAP
0000FFC00000
000FFFF80000
003FFFFF0000
007FFFFF8000
01FFFFFFE000
03FFFFFFF000
07FFFFFFF800
0FFFFFFFF800
0FFFFFFFFC00
1FFFFFFFFE00
3FFFFFFFFE00
3FFFC07FFF00
7FFF001FFF00
7FFC000FFF00
7FFC0007FF80
FFF80007FF80
FFF80003FF80
FFF00003FF80
FFF00003FF80
FFF00003FF80
FFF00003FF80
FFF00003FF80
7FE00003FF80
7FE00003FF80
3FC00007FF80
0F000007FF80
0000000FFF80
0000001FFF00
0000007FFF00
0000FFFFFE00
0007FFFFFE00
003FFFFFFC00
007FFFFFF800
00FFFFFFF800
03FFFFFFF000
07FFFFFFE000
07FFFFFF8000
0FFFFFFF0000
1FFFFFFC0000
1FFFFFC00000
3FFFC0000000
3FFF00000000
7FFC00000000
7FFC00000000
7FF800000000
FFF800000000
FFF000000000
FFF000000000
FFF000000000
FFF000000000
FFF000000000
FFF000000000
FFF000000000
FFF000000000
FFF000000000
FFF000000000
FFF000000000
FFF000000000
FFF000000000
FFFFFFFFFC00
FFFFFFFFFF00
FFFFFFFFFF80
FFFFFFFFFF80
7FFFFFFFFF80
7FFFFFFFFFC0
3FFFFFFFFF80
1FFFFFFFFF80
0FFFFFFFFF80
07FFFFFFFF00
00FFFFFFFC00
ENDCHAR
STARTCHAR 0033
ENCODING 51
SWIDTH 460 0
DWIDTH 46 0
BBX 41 70 2 0
BITMAP
0000FFC00000
000FFFF80000
003FFFFE0000
00FFFFFF8000
01FFFFFFC000
03FFFFFFE000
07FFFFFFF000
0FFFFFFFF800
1FFFFFFFFC00
1FFFFFFFFC00
3FFFFFFFFE00
3FFF80FFFF00
7FFE003FFF00
7FFC001FFF00
7FFC000FFF80
FFF80007FF80
FFF80007FF80
FFF00007FF80
FFF00007FF80
FFF00003FF80
FFF00003FF80
FFF00007FF80
7FE00007FF80
7FE00007FF80
3FC00007FF80
0F00000FFF00
0000001FFF00
0000003FFF00
000000FFFE00
00003FFFFE00
00007FFFFC00
0000FFFFFC00
0001FFFFF800
0001FFFFF800
0001FFFFF000
0001FFFFF000
0001FFFFF800
0001FFFFF800
0000FFFFFC00
00007FFFFE00
000007FFFE00
0000007FFF00
0000001FFF00
0000000FFF00
1F80000FFF00
3FC00007FF80
7FE00007FF80
FFF00003FF80
FFF00003FF80
FFF00003FF80
FFF00003FF80
FFF00003FF80
FFF00003FF80
FFF80007FF80
FFF80007FF80
7FFC000FFF00
7FFE001FFF00
7FFF003FFF00
3FFFF7FFFE00
3FFFFFFFFE00
1FFFFFFFFC00
1FFFFFFFFC00
0FFFFFFFF800
07FFFFFFF000
03FFFFFFE000
01FFFFFFC000
007FFFFF0000
003FFFFE0000
000FFFF80000
0000FF800000
ENDCHAR
STARTCHAR 0034
ENCODING 52
SWIDTH 460 0
DWIDTH 46 0
BBX 41 70 2 0
BITMAP
0F8000007C00
3FC00000FE00
7FE00001FF00
FFF00003FF80
FFF00003FF80
FFF00003FF80
FFF00003FF80
FFF00003FF80
FFF00003FF80
FFF00003FF80
FFF00003FF80
FFF00003FF80
FFF00003FF80
FFF00003FF80
FFF00003FF80
FFF00003FF80
FFF00003FF80
FFF00003FF80
FFF00003FF80
FFF00003FF80
FFF00003FF80
FFF00003FF80
FFF00003FF80
FFF00003FF80
FFF00003FF80
FFF00003FF80
FFF00003FF80
FFF00003FF80
FFF00003FF80
FFFFFFFFFF80
FFFFFFFFFF80
FFFFFFFFFF80
FFFFFFFFFF80
7FFFFFFFFF00
7FFFFFFFFF00
3FFFFFFFFF00
1FFFFFFFFF00
0FFFFFFFFF80
07FFFFFFFF80
01FFFFFFFF80
00000003FF80
00000003FF80
00000003FF80
00000003FF80
00000003FF80
00000003FF80
00000003FF80
00000003FF80
00000003FF80
00000003FF80
00000003FF80
00000003FF80
00000003FF80
00000003FF80
00000003FF80
00000003FF80
00000003FF80
00000003FF80
00000003FF80
00000003FF80
00000003FF80
00000003FF80
00000003FF80
00000003FF80
00000003FF80
00000003FF80
00000003FF80
00000001FF00
00000000FE00
000000007C00
ENDCHAR
STARTCHAR 0035
ENCODING 53
SWIDTH 460 0
DWIDTH 46 0
BBX 41 70 2 0
BITMAP
01FFFFFFFC00
07FFFFFFFE00
0FFFFFFFFF00
3FFFFFFFFF80
3FFFFFFFFF80
7FFFFFFFFF80
7FFFFFFFFF80
FFFFFFFFFF80
FFFFFFFFFF00
FFFFFFFFFE00
FFFFFFFFFC00
FFF000000000
FFF000000000
FFF000000000
FFF000000000
FFF000000000
FFF000000000
FFF000000000
FFF000000000
FFF000000000
FFF000000000
FFF000000000
FFF000000000
FFF000000000
FFF000000000
FFF000000000
FFF000000000
FFF000000000
FFF000000000
FFFFFF800000
FFFFFFF80000
FFFFFFFE0000
FFFFFFFF8000
7FFFFFFFC000
7FFFFFFFE000
3FFFFFFFF000
1FFFFFFFF800
0FFFFFFFFC00
07FFFFFFFC00
01FFFFFFFE00
000000FFFE00
0000003FFF00
0000001FFF00
0000000FFF00
00000007FF80
00000007FF80
00000003FF80
00000003FF80
00000003FF80
00000003FF80
00000003FF80
00000003FF80
00000003FF80
00000007FF80
00000007FF80
0000000FFF00
0000000FFF00
0000003FFF00
000000FFFE00
1FFFFFFFFE00
3FFFFFFFFC00
7FFFFFFFFC00
FFFFFFFFF800
FFFFFFFFF000
FFFFFFFFE000
FFFFFFFFC000
FFFFFFFF0000
7FFFFFFE0000
3FFFFFF80000
1FFFFF800000
ENDCHAR
STARTCHAR 0036
ENCODING 54
SWIDTH 460 0
DWIDTH 46 0
BBX 41 70 2 0
BITMAP
0001FFC00000
000FFFF80000
003FFFFE0000
00FFFFFF8000
01FFFFFFC000
03FFFFFFE000
07FFFFFFF000
0FFFFFFFF800
0FFFFFFFFC00
1FFFFFFFFC00
3FFFFFFFFE00
3FFFC0FFFE00
7FFF003FFF00
7FFC000FFF00
7FFC000FFF00
7FF80007FF80
FFF80007FF80
FFF00003FF80
FFF00003FF80
FFF00003FF80
FFF00003FF80
FFF00003FF80
FFF00003FF00
FFF00001FF00
FFF00000FE00
FFF000003800
FFF000000000
FFF000000000
FFF000000000
FFFFFF800000
FFFFFFF80000
FFFFFFFE0000
FFFFFFFF8000
7FFFFFFFC000
7FFFFFFFE000
7FFFFFFFF000
7FFFFFFFF800
FFFFFFFFFC00
FFFFFFFFFC00
FFFFFFFFFE00
FFF000FFFE00
FFF0003FFF00
FFF0000FFF00
FFF0000FFF00
FFF00007FF80
FFF00007FF80
FFF00003FF80
FFF00003FF80
FFF00003FF80
FFF00003FF80
FFF00003FF80
FFF00003FF80
FFF00003FF80
FFF80007FF80
FFF80007FF80
7FFC000FFF00
7FFE001FFF00
7FFF807FFF00
3FFFFFFFFE00
3FFFFFFFFE00
1FFFFFFFFC00
1FFFFFFFFC00
0FFFFFFFF800
07FFFFFFF000
03FFFFFFE000
01FFFFFFC000
00FFFFFF0000
003FFFFE0000
000FFFF80000
0000FF800000
ENDCHAR
STARTCHAR 0037
ENCODING 55
SWIDTH 460 0
DWIDTH 46 0
BBX 42 70 2 0
BITMAP
0FFFFFFFC000
3FFFFFFFF000
7FFFFFFFFC00
7FFFFFFFFE00
7FFFFFFFFF00
FFFFFFFFFF00
7FFFFFFFFF80
7FFFFFFFFF80
7FFFFFFFFF80
3FFFFFFFFF80
0FFFFFFFFFC0
00000003FF80
00000003FF80
00000007FF80
00000007FF80
00000007FF80
00000007FF00
0000000FFF00
0000000FFF00
0000000FFF00
0000001FFE00
0000001FFE00
0000001FFE00
0000001FFC00
0000003FFC00
0000003FFC00
0000003FFC00
0000007FF800
0000007FF800
0000007FF800
000000FFF000
000000FFF000
000000FFF000
000000FFF000
000001FFE000
000001FFE000
000001FFE000
000003FFC000
000003FFC000
000003FFC000
000007FF8000
000007FF8000
000007FF8000
000007FF8000
00000FFF0000
00000FFF0000
00000FFF0000
00001FFE0000
00001FFE0000
00001FFE0000
00003FFE0000
00003FFC0000
00003FFC0000
00003FFC0000
00007FF80000
00007FF80000
00007FF80000
00007FF00000
0000FFF00000
0000FFF00000
0000FFF00000
0000FFE00000
0001FFE00000
0001FFE00000
0001FFE00000
0001FFE00000
0000FFC00000
0000FFC00000
00007F800000
00001E000000
ENDCHAR
STARTCHAR 0038
ENCODING 56
SWIDTH 460 0
DWIDTH 46 0
BBX 41 70 2 0
BITMAP
0001FFC00000
000FFFF80000
003FFFFE0000
00FFFFFF8000
01FFFFFFC000
03FFFFFFE000
07FFFFFFF000
0FFFFFFFF800
0FFFFFFFF800
1FFFFFFFFC00
3FFFFFFFFE00
3FFFC0FFFE00
7FFF001FFF00
7FFC000FFF00
7FFC000FFF00
7FF80007FF00
FFF80007FF80
FFF00003FF80
FFF00003FF80
FFF00003FF80
FFF00003FF80
FFF00003FF80
FFF00003FF80
FFF80007FF80
FFF80007FF80
7FFC000FFF00
7FFC000FFF00
7FFE001FFF00
3FFF80FFFE00
3FFFFFFFFE00
1FFFFFFFFC00
1FFFFFFFFC00
0FFFFFFFF800
07FFFFFFF800
07FFFFFFF000
07FFFFFFF000
0FFFFFFFF800
0FFFFFFFF800
1FFFFFFFFC00
3FFFFFFFFE00
3FFFFFFFFE00
7FFF007FFF00
7FFE001FFF00
7FFC000FFF00
FFF80007FF00
FFF80007FF80
FFF00003FF80
FFF00003FF80
FFF00003FF80
FFF00003FF80
FFF00003FF80
FFF00003FF80
FFF00003FF80
FFF80007FF80
FFF80007FF80
7FFC000FFF00
7FFE001FFF00
7FFF003FFF00
3FFFF3FFFE00
3FFFFFFFFE00
1FFFFFFFFC00
1FFFFFFFFC00
0FFFFFFFF800
07FFFFFFF000
03FFFFFFE000
01FFFFFFC000
00FFFFFF0000
003FFFFE0000
000FFFF80000
0000FF800000
ENDCHAR
STARTCHAR 0039
ENCODING 57
SWIDTH 460 0
DWIDTH 46 0
BBX 41 70 2 0
BITMAP
0000FFC00000
000FFFF80000
003FFFFE0000
00FFFFFF8000
01FFFFFFC000
03FFFFFFE000
07FFFFFFF000
0FFFFFFFF800
1FFFFFFFF800
1FFFFFFFFC00
3FFFFFFFFE00
3FFFC0FFFE00
7FFF003FFF00
7FFC000FFF00
7FF8000FFF00
FFF80007FF00
FFF00007FF80
FFF00003FF80
FFF00003FF80
FFF00003FF80
FFF00003FF80
FFF00003FF80
FFF00003FF80
FFF00003FF80
FFF80003FF80
7FF80003FF80
7FFC0003FF80
7FFF0003FF80
3FFFC003FF80
3FFFFFFFFF80
1FFFFFFFFF80
1FFFFFFFFF80
0FFFFFFFFF80
07FFFFFFFF00
03FFFFFFFF00
01FFFFFFFF00
007FFFFFFF00
003FFFFFFF80
000FFFFFFF80
0000FFFFFF80
00000003FF80
00000003FF80
00000003FF80
00000003FF80
00000003FF80
00000003FF80
00000003FF80
00000003FF80
00000003FF80
00000003FF80
00000003FF80
00000003FF80
00000003FF80
00000003FF80
00000003FF80
00000003FF80
00000003FF80
00000003FF80
00000003FF80
00000003FF80
00000003FF80
00000003FF80
00000003FF80
00000003FF80
00000003FF80
00000003FF80
00000003FF80
00000001FF00
00000000FE00
000000007C00
ENDCHAR
STARTCHAR 003A
ENCODING 58
SWIDTH 160 0
DWIDTH 16 0
BBX 11 56 3 0
BITMAP
1F00
3F80
7FC0
FFC0
FFE0
FFE0
FFE0
FFE0
FFE0
7FC0
3F80
1F00
0000
0000
0000
0000
0000
0000
0000
0000
0000
0000
0000
0000
0000
0000
0000
0000
0000
0000
0000
0000
0000
0000
0000
0000
0000
0000
0000
0000
0000
0000
0000
0000
0000
1F00
3F80
7FC0
FFE0
FFE0
FFE0
FFE0
FFE0
7FC0
3F80
1F00
ENDCHAR
STARTCHAR 003B
ENCODING 59
SWIDTH 170 0
DWIDTH 17 0
BBX 12 71 2 -15
BITMAP
1F00
3FC0
7FE0
7FE0
FFF0
FFF0
FFF0
FFF0
7FE0
7FE0
3FC0
0F00
0000
0000
0000
0000
0000
0000
0000
0000
0000
0000
0000
0000
0000
0000
0000
0000
0000
0000
0000
0000
0000
0000
0000
0000
0000
0000
0000
0000
0000
0000
0000
0000
0000
1F80
3FC0
7FE0
FFF0
FFF0
FFF0
FFF0
FFF0
FFF0
FFF0
FFF0
FFF0
FFF0
FFF0
FFF0
FFF0
FFF0
FFF0
FFF0
FFF0
FFF0
FFF0
FFF0
7FE0
3FC0
1F00
ENDCHAR
STARTCHAR 003C
ENCODING 60
SWIDTH 460 0
DWIDTH 46 0
BBX 41 42 2 14
BITMAP
00000001FC00
0000001FFE00
000000FFFF00
000003FFFF80
00000FFFFF80
00001FFFFF80
00007FFFFF80
0000FFFFFF80
0003FFFFFF80
0007FFFFFF00
000FFFFFFF00
001FFFFFFC00
003FFFFF0000
00FFFFF80000
01FFFFC00000
07FFFF800000
1FFFFE000000
3FFFFC000000
7FFFF8000000
7FFFE0000000
7FFFC0000000
FFFFC0000000
7FFFE0000000
7FFFF0000000
3FFFFC000000
1FFFFE000000
07FFFF800000
01FFFFC00000
00FFFFF80000
007FFFFF0000
001FFFFFFC00
000FFFFFFE00
0007FFFFFF00
0003FFFFFF80
0000FFFFFF80
00007FFFFF80
00001FFFFF80
00000FFFFF80
000003FFFF80
000000FFFF00
0000001FFF00
00000001FC00
ENDCHAR
STARTCHAR 003D
ENCODING 61
SWIDTH 460 0
DWIDTH 46 0
BBX 41 32 2 19
BITMAP
0FFFFFFFFC00
3FFFFFFFFF00
3FFFFFFFFF00
7FFFFFFFFF80
7FFFFFFFFF80
7FFFFFFFFF80
FFFFFFFFFF80
7FFFFFFFFF80
7FFFFFFFFF80
3FFFFFFFFF00
3FFFFFFFFF00
0FFFFFFFFC00
000000000000
000000000000
000000000000
000000000000
000000000000
000000000000
000000000000
000000000000
0FFFFFFFFC00
3FFFFFFFFF00
3FFFFFFFFF00
7FFFFFFFFF80
7FFFFFFFFF80
7FFFFFFFFF80
FFFFFFFFFF80
7FFFFFFFFF80
7FFFFFFFFF80
3FFFFFFFFF00
3FFFFFFFFF00
0FFFFFFFFC00
ENDCHAR
STARTCHAR 003E
ENCODING 62
SWIDTH 460 0
DWIDTH 46 0
BBX 41 42 2 14
BITMAP
0FE000000000
3FFE00000000
3FFFC0000000
7FFFF0000000
7FFFFC000000
7FFFFF000000
FFFFFF800000
7FFFFFC00000
7FFFFFF00000
3FFFFFF80000
3FFFFFFC0000
0FFFFFFE0000
003FFFFF8000
0007FFFFC000
0001FFFFE000
00007FFFF800
00001FFFFE00
00000FFFFF00
000003FFFF80
000001FFFF80
000000FFFF80
000000FFFF80
000001FFFF80
000003FFFF80
00000FFFFF00
00001FFFFE00
00007FFFFC00
0001FFFFE000
0007FFFFC000
003FFFFF8000
0FFFFFFE0000
3FFFFFFC0000
3FFFFFF80000
7FFFFFF00000
7FFFFFC00000
7FFFFF800000
FFFFFE000000
7FFFFC000000
7FFFF0000000
3FFFC0000000
3FFE00000000
0FE000000000
ENDCHAR
STARTCHAR 003F
ENCODING 63
SWIDTH 460 0
DWIDTH 46 0
BBX 42 70 2 0
BITMAP
0000FFC00000
000FFFFC0000
003FFFFF0000
007FFFFF8000
01FFFFFFE000
03FFFFFFF000
07FFFFFFF800
0FFFFFFFFC00
0FFFFFFFFC00
1FFFFFFFFE00
3FFFFFFFFE00
3FFF807FFF00
3FFE001FFF00
7FFC000FFF80
7FF80007FF80
7FF80007FF80
FFF00003FF80
FFF00003FFC0
FFF00003FFC0
FFF00003FFC0
FFF00003FFC0
FFF00003FFC0
7FE00003FFC0
7FE00003FF80
3FC00007FF80
0F000007FF80
0000000FFF80
0000001FFF00
0000007FFF00
000003FFFE00
00000FFFFE00
00001FFFFC00
00003FFFFC00
00007FFFF800
0000FFFFF000
0000FFFFE000
0001FFFFC000
0001FFFF8000
0001FFFE0000
0001FFF00000
0001FFE00000
0001FFE00000
0001FFE00000
0001FFE00000
0001FFE00000
0001FFE00000
0001FFE00000
0001FFE00000
0001FFE00000
0001FFE00000
0001FFE00000
0001FFE00000
0000FFC00000
00007F800000
00003F000000
000000000000
000000000000
000000000000
000000000000
00001F000000
00007F800000
0000FFC00000
0001FFE00000
0001FFE00000
0001FFE00000
0001FFE00000
0001FFE00000
0000FFC00000
00007F800000
00003E000000
ENDCHAR
STARTCHAR 0040
ENCODING 64
SWIDTH 760 0
DWIDTH 76 0
BBX 71 70 2 0
BITMAP
0000FFFFFFFFFE0000
0007FFFFFFFFFFE000
003FFFFFFFFFFFF800
007FFFFFFFFFFFFC00
01FFFFFFFFFFFFFF00
03FFFFFFFFFFFFFF80
07FFFFFFFFFFFFFFC0
0FFFFFFFFFFFFFFFE0
1FFFFFFFFFFFFFFFE0
1FFFFFFFFFFFFFFFF0
3FFFFFFFFFFFFFFFF8
3FFFC000000007FFF8
7FFE0000000001FFF8
7FFC00000000007FFC
7FF800007FF0007FFC
FFF80001FFFE003FFC
FFF00001FFFF803FFE
FFF00003FFFFC01FFE
FFF00003FFFFE01FFE
FFF00003FFFFF01FFE
FFF00007FFFFF81FFE
FFF00003FFFFFC1FFE
FFF00003FFFFFC1FFE
FFF00001FFFFFE1FFE
FFF00001FFFFFE1FFE
FFF000007FFFFE1FFE
FFF00000001FFE1FFE
FFF00000000FFF1FFE
FFF00000000FFF1FFE
FFF003FFFFFFFF1FFE
FFF00FFFFFFFFF1FFE
FFF01FFFFFFFFF1FFE
FFF07FFFFFFFFE1FFE
FFF07FFFFFFFFE1FFE
FFF0FFFFFFFFFE1FFE
FFF0FFFFFFFFFE1FFE
FFF1FFFFFFFFFE1FFE
FFF1FFFFFFFFFF1FFE
FFF1FFFFFFFFFF1FFE
FFF1FFFFFFFFFF1FFE
FFF1FFE00007FF1FFE
FFF1FFE00007FF1FFE
FFF1FFF00007FF1FFE
FFF1FFF80007FF1FFE
FFF1FFFFFFFFFFFFFE
FFF0FFFFFFFFFFFFFE
FFF0FFFFFFFFFFFFFE
FFF0FFFFFFFFFFFFFE
FFF07FFFFFFFFFFFFE
FFF03FFFFFFFFFFFFC
FFF03FFFFFFFFFFFFC
FFF01FFFFFFFFFFFF8
FFF00FFFFFFFFFFFF0
FFF807FFFFFFFFFFE0
7FF801FFFFFFFFFFC0
7FFC003FFFFF0FFE00
7FFC00000000000000
7FFE00000000000000
3FFF80000000000000
3FFFFFFFFFFFF80000
1FFFFFFFFFFFFE0000
0FFFFFFFFFFFFE0000
0FFFFFFFFFFFFF0000
07FFFFFFFFFFFF0000
03FFFFFFFFFFFF0000
01FFFFFFFFFFFF0000
007FFFFFFFFFFF0000
003FFFFFFFFFFE0000
000FFFFFFFFFFC0000
0000FFFFFFFFF80000
ENDCHAR
STARTCHAR 0041
ENCODING 65
SWIDTH 460 0
DWIDTH 46 0
BBX 41 70 2 0
BITMAP
0001FFC00000
000FFFF80000
003FFFFE0000
00FFFFFF8000
01FFFFFFC000
03FFFFFFE000
07FFFFFFF000
0FFFFFFFF800
0FFFFFFFF800
1FFFFFFFFC00
3FFFFFFFFE00
3FFFC0FFFE00
7FFF003FFF00
7FFC000FFF00
7FFC000FFF00
7FF80007FF00
FFF80007FF80
FFF00003FF80
FFF00003FF80
FFF00003FF80
FFF00003FF80
FFF00003FF80
FFF00003FF80
FFF00003FF80
FFF00003FF80
FFF00003FF80
FFF00003FF80
FFF00003FF80
FFF00003FF80
FFFFFFFFFF80
FFFFFFFFFF80
FFFFFFFFFF80
FFFFFFFFFF80
7FFFFFFFFF00
7FFFFFFFFF00
7FFFFFFFFF00
7FFFFFFFFF00
FFFFFFFFFF80
FFFFFFFFFF80
FFFFFFFFFF80
FFF00003FF80
FFF00003FF80
FFF00003FF80
FFF00003FF80
FFF00003FF80
FFF00003FF80
FFF00003FF80
FFF00003FF80
FFF00003FF80
FFF00003FF80
FFF00003FF80
FFF00003FF80
FFF00003FF80
FFF00003FF80
FFF00003FF80
FFF00003FF80
FFF00003FF80
FFF00003FF80
FFF00003FF80
FFF00003FF80
FFF00003FF80
FFF00003FF80
FFF00003FF80
FFF00003FF80
FFF00003FF80
FFF00003FF80
FFF00003FF80
7FE00001FF00
3FC00000FE00
0F8000007C00
ENDCHAR
STARTCHAR 0042
ENCODING 66
SWIDTH 460 0
DWIDTH 46 0
BBX 41 70 2 0
BITMAP
01FFFF800000
07FFFFF80000
0FFFFFFE0000
1FFFFFFF0000
3FFFFFFFC000
7FFFFFFFE000
7FFFFFFFF000
FFFFFFFFF800
FFFFFFFFFC00
FFFFFFFFFC00
FFFFFFFFFE00
FFF000FFFE00
FFF0003FFF00
FFF0000FFF00
FFF0000FFF00
FFF00007FF80
FFF00007FF80
FFF00003FF80
FFF00003FF80
FFF00003FF80
FFF00003FF80
FFF00003FF80
FFF00003FF80
FFF00007FF80
FFF00007FF80
FFF0000FFF00
FFF0000FFF00
FFF0003FFF00
FFF000FFFF00
FFFFFFFFFE00
FFFFFFFFFE00
FFFFFFFFFC00
FFFFFFFFF800
7FFFFFFFF800
7FFFFFFFF000
7FFFFFFFF000
7FFFFFFFF800
FFFFFFFFF800
FFFFFFFFFC00
FFFFFFFFFE00
FFF000FFFE00
FFF0003FFF00
FFF0001FFF00
FFF0000FFF00
FFF00007FF00
FFF00007FF80
FFF00003FF80
FFF00003FF80
FFF00003FF80
FFF00003FF80
FFF00003FF80
FFF00003FF80
FFF00003FF80
FFF00007FF80
FFF00007FF80
FFF0000FFF00
FFF0000FFF00
FFF0003FFF00
FFF000FFFE00
FFFFFFFFFE00
FFFFFFFFFC00
FFFFFFFFFC00
FFFFFFFFF800
7FFFFFFFF000
7FFFFFFFE000
3FFFFFFFC000
1FFFFFFF0000
0FFFFFFE0000
07FFFFF80000
01FFFF800000
ENDCHAR
STARTCHAR 0043
ENCODING 67
SWIDTH 460 0
DWIDTH 46 0
BBX 41 70 2 0
BITMAP
0001FFC00000
000FFFF80000
003FFFFE0000
00FFFFFF8000
01FFFFFFC000
03FFFFFFE000
07FFFFFFF000
0FFFFFFFF800
0FFFFFFFFC00
1FFFFFFFFC00
3FFFFFFFFE00
3FFFC0FFFE00
7FFF003FFF00
7FFC000FFF00
7FFC000FFF00
7FF80007FF80
FFF80007FF80
FFF00003FF80
FFF00003FF80
FFF00003FF80
FFF00003FF80
FFF00003FF80
FFF00003FF00
FFF00001FF00
FFF00000FE00
FFF000003800
FFF000000000
FFF000000000
FFF000000000
FFF000000000
FFF000000000
FFF000000000
FFF000000000
FFF000000000
FFF000000000
FFF000000000
FFF000000000
FFF000000000
FFF000000000
FFF000000000
FFF000000000
FFF000000000
FFF000000000
FFF000000000
FFF000003800
FFF00000FE00
FFF00001FF00
FFF00003FF00
FFF00003FF80
FFF00003FF80
FFF00003FF80
FFF00003FF80
FFF00003FF80
FFF80007FF80
FFF80007FF80
7FFC000FFF00
7FFC000FFF00
7FFE003FFF00
3FFF80FFFE00
3FFFFFFFFE00
1FFFFFFFFC00
1FFFFFFFFC00
0FFFFFFFF800
07FFFFFFF000
03FFFFFFE000
01FFFFFFC000
00FFFFFF8000
003FFFFE0000
000FFFF80000
0001FFC00000
ENDCHAR
STARTCHAR 0044
ENCODING 68
SWIDTH 460 0
DWIDTH 46 0
BBX 41 70 2 0
BITMAP
01FFFF800000
07FFFFF80000
0FFFFFFE0000
1FFFFFFF0000
3FFFFFFFC000
7FFFFFFFE000
7FFFFFFFF000
FFFFFFFFF800
FFFFFFFFFC00
FFFFFFFFFC00
FFFFFFFFFE00
FFF000FFFE00
FFF0003FFF00
FFF0000FFF00
FFF0000FFF00
FFF00007FF80
FFF00007FF80
FFF00003FF80
FFF00003FF80
FFF00003FF80
FFF00003FF80
FFF00003FF80
FFF00003FF80
FFF00003FF80
FFF00003FF80
FFF00003FF80
FFF00003FF80
FFF00003FF80
FFF00003FF80
FFF00003FF80
FFF00003FF80
FFF00003FF80
FFF00003FF80
FFF00003FF80
FFF00003FF80
FFF00003FF80
FFF00003FF80
FFF00003FF80
FFF00003FF80
FFF00003FF80
FFF00003FF80
FFF00003FF80
FFF00003FF80
FFF00003FF80
FFF00003FF80
FFF00003FF80
FFF00003FF80
FFF00003FF80
FFF00003FF80
FFF00003FF80
FFF00003FF80
FFF00003FF80
FFF00003FF80
FFF00007FF80
FFF00007FF00
FFF0000FFF00
FFF0000FFF00
FFF0003FFF00
FFF000FFFE00
FFFFFFFFFE00
FFFFFFFFFC00
FFFFFFFFF800
FFFFFFFFF800
7FFFFFFFF000
7FFFFFFFE000
3FFFFFFFC000
1FFFFFFF8000
0FFFFFFE0000
07FFFFF80000
01FFFFC00000
ENDCHAR
STARTCHAR 0045
ENCODING 69
SWIDTH 460 0
DWIDTH 46 0
BBX 42 70 2 0
BITMAP
00FFFFFFFC00
07FFFFFFFF00
0FFFFFFFFF80
1FFFFFFFFF80
3FFFFFFFFF80
7FFFFFFFFFC0
7FFFFFFFFF80
FFFFFFFFFF80
FFFFFFFFFF80
FFFFFFFFFF00
FFFFFFFFFC00
FFF000000000
FFF000000000
FFF000000000
FFF000000000
FFF000000000
FFF000000000
FFF000000000
FFF000000000
FFF000000000
FFF000000000
FFF000000000
FFF000000000
FFF000000000
FFF000000000
FFF000000000
FFF000000000
FFF000000000
FFF000000000
FFFFFE000000
FFFFFF800000
FFFFFFC00000
FFFFFFC00000
7FFFFFE00000
7FFFFFE00000
7FFFFFE00000
7FFFFFC00000
FFFFFFC00000
FFFFFF800000
FFFFFE000000
FFF000000000
FFF000000000
FFF000000000
FFF000000000
FFF000000000
FFF000000000
FFF000000000
FFF000000000
FFF000000000
FFF000000000
FFF000000000
FFF000000000
FFF000000000
FFF000000000
FFF000000000
FFF000000000
FFF000000000
FFF000000000
FFF000000000
FFFFFFFFFC00
FFFFFFFFFF00
FFFFFFFFFF80
FFFFFFFFFF80
7FFFFFFFFF80
7FFFFFFFFFC0
3FFFFFFFFF80
1FFFFFFFFF80
0FFFFFFFFF80
07FFFFFFFF00
00FFFFFFFC00
ENDCHAR
STARTCHAR 0046
ENCODING 70
SWIDTH 460 0
DWIDTH 46 0
BBX 42 70 2 0
BITMAP
00FFFFFFFC00
07FFFFFFFF00
0FFFFFFFFF80
1FFFFFFFFF80
3FFFFFFFFF80
7FFFFFFFFFC0
7FFFFFFFFF80
FFFFFFFFFF80
FFFFFFFFFF80
FFFFFFFFFF00
FFFFFFFFFC00
FFF000000000
FFF000000000
FFF000000000
FFF000000000
FFF000000000
FFF000000000
FFF000000000
FFF000000000
FFF000000000
FFF000000000
FFF000000000
FFF000000000
FFF000000000
FFF000000000
FFF000000000
FFF000000000
FFF000000000
FFF000000000
FFFFFE000000
FFFFFF800000
FFFFFFC00000
FFFFFFC00000
7FFFFFE00000
7FFFFFE00000
7FFFFFE00000
7FFFFFC00000
FFFFFFC00000
FFFFFF800000
FFFFFE000000
FFF000000000
FFF000000000
FFF000000000
FFF000000000
FFF000000000
FFF000000000
FFF000000000
FFF000000000
FFF000000000
FFF000000000
FFF000000000
FFF000000000
FFF000000000
FFF000000000
FFF000000000
FFF000000000
FFF000000000
FFF000000000
FFF000000000
FFF000000000
FFF000000000
FFF000000000
FFF000000000
FFF000000000
FFF000000000
FFF000000000
FFF000000000
7FE000000000
3FC000000000
0F8000000000
ENDCHAR
STARTCHAR 0047
ENCODING 71
SWIDTH 460 0
DWIDTH 46 0
BBX 41 70 2 0
BITMAP
0001FFC00000
000FFFF80000
003FFFFE0000
00FFFFFF8000
01FFFFFFC000
03FFFFFFE000
07FFFFFFF000
0FFFFFFFF800
0FFFFFFFFC00
1FFFFFFFFC00
3FFFFFFFFE00
3FFFC0FFFE00
7FFF003FFF00
7FFC000FFF00
7FFC000FFF00
7FF80007FF80
FFF80007FF80
FFF00003FF80
FFF00003FF80
FFF00003FF80
FFF00003FF80
FFF00003FF80
FFF00003FF00
FFF00001FF00
FFF00000FE00
FFF000003800
FFF000000000
FFF000000000
FFF000000000
FFF01FFFC000
FFF07FFFF000
FFF0FFFFF800
FFF0FFFFFC00
FFF1FFFFFE00
FFF1FFFFFF00
FFF1FFFFFF00
FFF0FFFFFF80
FFF0FFFFFF80
FFF07FFFFF80
FFF03FFFFF80
FFF00003FF80
FFF00003FF80
FFF00003FF80
FFF00003FF80
FFF00003FF80
FFF00003FF80
FFF00003FF80
FFF00003FF80
FFF00003FF80
FFF00003FF80
FFF00003FF80
FFF00003FF80
FFF00003FF80
FFF80003FF80
FFF80003FF80
7FFC0003FF80
7FFC0003FF80
7FFE0003FF80
3FFF8003FF80
3FFFFFFFFF80
1FFFFFFFFF80
1FFFFFFFFF80
0FFFFFFFFF80
07FFFFFFFF00
03FFFFFFFF00
01FFFFFFFE00
00FFFFFFFC00
003FFFFFF800
000FFFFFF000
0001FFFFC000
ENDCHAR
STARTCHAR 0048
ENCODING 72
SWIDTH 460 0
DWIDTH 46 0
BBX 41 70 2 0
BITMAP
0F8000007C00
3FC00000FE00
7FE00001FF00
FFF00003FF80
FFF00003FF80
FFF00003FF80
FFF00003FF80
FFF00003FF80
FFF00003FF80
FFF00003FF80
FFF00003FF80
FFF00003FF80
FFF00003FF80
FFF00003FF80
FFF00003FF80
FFF00003FF80
FFF00003FF80
FFF00003FF80
FFF00003FF80
FFF00003FF80
FFF00003FF80
FFF00003FF80
FFF00003FF80
FFF00003FF80
FFF00003FF80
FFF00003FF80
FFF00003FF80
FFF00003FF80
FFF00003FF80
FFFFFFFFFF80
FFFFFFFFFF80
FFFFFFFFFF80
FFFFFFFFFF80
7FFFFFFFFF00
7FFFFFFFFF00
7FFFFFFFFF00
7FFFFFFFFF00
FFFFFFFFFF80
FFFFFFFFFF80
FFFFFFFFFF80
FFF00003FF80
FFF00003FF80
FFF00003FF80
FFF00003FF80
FFF00003FF80
FFF00003FF80
FFF00003FF80
FFF00003FF80
FFF00003FF80
FFF00003FF80
FFF00003FF80
FFF00003FF80
FFF00003FF80
FFF00003FF80
FFF00003FF80
FFF00003FF80
FFF00003FF80
FFF00003FF80
FFF00003FF80
FFF00003FF80
FFF00003FF80
FFF00003FF80
FFF00003FF80
FFF00003FF80
FFF00003FF80
FFF00003FF80
FFF00003FF80
7FE00001FF00
3FC00000FE00
0F8000007C00
ENDCHAR
STARTCHAR 0049
ENCODING 73
SWIDTH 460 0
DWIDTH 46 0
BBX 42 70 2 0
BITMAP
0FFFE1FFFC00
3FFFFFFFFF00
7FFFFFFFFF80
7FFFFFFFFF80
FFFFFFFFFFC0
FFFFFFFFFFC0
FFFFFFFFFFC0
7FFFFFFFFF80
7FFFFFFFFF80
3FFFFFFFFF00
1FFFFFFFFC00
0001FFE00000
0001FFE00000
0001FFE00000
0001FFE00000
0001FFE00000
0001FFE00000
0001FFE00000
0001FFE00000
0001FFE00000
0001FFE00000
0001FFE00000
0001FFE00000
0001FFE00000
0001FFE00000
0001FFE00000
0001FFE00000
0001FFE00000
0001FFE00000
0001FFE00000
0001FFE00000
0001FFE00000
0001FFE00000
0001FFE00000
0001FFE00000
0001FFE00000
0001FFE00000
0001FFE00000
0001FFE00000
0001FFE00000
0001FFE00000
0001FFE00000
0001FFE00000
0001FFE00000
0001FFE00000
0001FFE00000
0001FFE00000
0001FFE00000
0001FFE00000
0001FFE00000
0001FFE00000
0001FFE00000
0001FFE00000
0001FFE00000
0001FFE00000
0001FFE00000
0001FFE00000
0001FFE00000
0001FFE00000
0FFFFFFFFC00
3FFFFFFFFF00
7FFFFFFFFF80
7FFFFFFFFF80
FFFFFFFFFFC0
FFFFFFFFFFC0
FFFFFFFFFFC0
7FFFFFFFFF80
7FFFFFFFFF80
3FFFFFFFFF00
0FFFE1FFFC00
ENDCHAR
STARTCHAR 004A
ENCODING 74
SWIDTH 460 0
DWIDTH 46 0
BBX 41 70 2 0
BITMAP
000000007C00
00000000FE00
00000001FF00
00000003FF80
00000003FF80
00000003FF80
00000003FF80
00000003FF80
00000003FF80
00000003FF80
00000003FF80
00000003FF80
00000003FF80
00000003FF80
00000003FF80
00000003FF80
00000003FF80
00000003FF80
00000003FF80
00000003FF80
00000003FF80
00000003FF80
00000003FF80
00000003FF80
00000003FF80
00000003FF80
00000003FF80
00000003FF80
00000003FF80
00000003FF80
00000003FF80
00000003FF80
00000003FF80
00000003FF80
00000003FF80
00000003FF80
00000003FF80
00000003FF80
00000003FF80
00000003FF80
00000003FF80
00000003FF80
00000003FF80
00000003FF80
07000003FF80
1FC00003FF80
3FE00003FF80
7FE00003FF80
7FF00003FF80
FFF00003FF80
FFF00003FF80
FFF00003FF80
7FF00003FF80
7FF00007FF80
7FF80007FF00
7FF8000FFF00
7FFC000FFF00
3FFE003FFF00
3FFF80FFFE00
1FFFFFFFFE00
1FFFFFFFFC00
0FFFFFFFFC00
0FFFFFFFF800
07FFFFFFF000
03FFFFFFE000
01FFFFFFC000
007FFFFF8000
003FFFFE0000
000FFFF80000
0000FFC00000
ENDCHAR
STARTCHAR 004B
ENCODING 75
SWIDTH 460 0
DWIDTH 46 0
BBX 41 70 2 0
BITMAP
0F8000007C00
3FC00000FE00
7FE00001FF00
FFF00003FF80
FFF00003FF80
FFF00003FF80
FFF00003FF80
FFF00003FF80
FFF00003FF80
FFF00003FF80
FFF00003FF80
FFF00003FF80
FFF00003FF80
FFF00003FF80
FFF00003FF80
FFF00003FF80
FFF00003FF80
FFF00003FF80
FFF00003FF80
FFF00003FF80
FFF00003FF80
FFF00003FF80
FFF00003FF80
FFF00007FF80
FFF00007FF80
FFF00007FF00
FFF0000FFF00
FFF0003FFF00
FFF000FFFF00
FFFFFFFFFE00
FFFFFFFFFE00
FFFFFFFFFC00
FFFFFFFFF800
7FFFFFFFF800
7FFFFFFFF000
7FFFFFFFF000
7FFFFFFFF800
FFFFFFFFF800
FFFFFFFFFC00
FFFFFFFFFE00
FFF000FFFE00
FFF0003FFF00
FFF0000FFF00
FFF0000FFF00
FFF00007FF00
FFF00007FF80
FFF00003FF80
FFF00003FF80
FFF00003FF80
FFF00003FF80
FFF00003FF80
FFF00003FF80
FFF00003FF80
FFF00003FF80
FFF00003FF80
FFF00003FF80
FFF00003FF80
FFF00003FF80
FFF00003FF80
FFF00003FF80
FFF00003FF80
FFF00003FF80
FFF00003FF80
FFF00003FF80
FFF00003FF80
FFF00003FF80
FFF00003FF80
7FE00001FF00
3FC00000FE00
0F8000007C00
ENDCHAR
STARTCHAR 004C
ENCODING 76
SWIDTH 460 0
DWIDTH 46 0
BBX 42 70 2 0
BITMAP
0F8000000000
3FC000000000
7FE000000000
FFF000000000
FFF000000000
FFF000000000
FFF000000000
FFF000000000
FFF000000000
FFF000000000
FFF000000000
FFF000000000
FFF000000000
FFF000000000
FFF000000000
FFF000000000
FFF000000000
FFF000000000
FFF000000000
FFF000000000
FFF000000000
FFF000000000
FFF000000000
FFF000000000
FFF000000000
FFF000000000
FFF000000000
FFF000000000
FFF000000000
FFF000000000
FFF000000000
FFF000000000
FFF000000000
FFF000000000
FFF000000000
FFF000000000
FFF000000000
FFF000000000
FFF000000000
FFF000000000
FFF000000000
FFF000000000
FFF000000000
FFF000000000
FFF000000000
FFF000000000
FFF000000000
FFF000000000
FFF000000000
FFF000000000
FFF000000000
FFF000000000
FFF000000000
FFF000000000
FFF000000000
FFF000000000
FFF000000000
FFF000000000
FFF000000000
FFFFFFFFFC00
FFFFFFFFFF00
FFFFFFFFFF80
FFFFFFFFFF80
7FFFFFFFFF80
7FFFFFFFFFC0
3FFFFFFFFF80
1FFFFFFFFF80
0FFFFFFFFF80
07FFFFFFFF00
00FFFFFFFC00
ENDCHAR
STARTCHAR 004D
ENCODING 77
SWIDTH 660 0
DWIDTH 66 0
BBX 61 70 2 0
BITMAP
0000FFF8FFF80000
000FFFFFFFFF8000
003FFFFFFFFFE000
00FFFFFFFFFFF000
01FFFFFFFFFFFC00
03FFFFFFFFFFFE00
07FFFFFFFFFFFF00
0FFFFFFFFFFFFF80
0FFFFFFFFFFFFFC0
1FFFFFFFFFFFFFC0
3FFFFFFFFFFFFFE0
3FFF807FF80FFFE0
7FFE007FF803FFF0
7FFC007FF801FFF0
7FF8007FF800FFF0
7FF8007FF800FFF8
FFF8007FF800FFF8
FFF0007FF8007FF8
FFF0007FF8007FF8
FFF0007FF8007FF8
FFF0007FF8007FF8
FFF0007FF8007FF8
FFF0007FF8007FF8
FFF0007FF8007FF8
FFF0007FF8007FF8
FFF0007FF8007FF8
FFF0007FF8007FF8
FFF0007FF8007FF8
FFF0007FF8007FF8
FFF0007FF8007FF8
FFF0007FF8007FF8
FFF0007FF8007FF8
FFF0007FF8007FF8
FFF0007FF8007FF8
FFF0007FF8007FF8
FFF0007FF8007FF8
FFF0007FF8007FF8
FFF0007FF8007FF8
FFF0007FF8007FF8
FFF0007FF8007FF8
FFF0007FF8007FF8
FFF0007FF8007FF8
FFF0007FF8007FF8
FFF0007FF8007FF8
FFF0007FF8007FF8
FFF0007FF8007FF8
FFF0007FF8007FF8
FFF0007FF8007FF8
FFF0007FF8007FF8
FFF0007FF8007FF8
FFF0007FF8007FF8
FFF0007FF8007FF8
FFF0007FF8007FF8
FFF0007FF8007FF8
FFF0007FF8007FF8
FFF0007FF8007FF8
FFF0007FF8007FF8
FFF0007FF8007FF8
FFF0007FF8007FF8
FFF0007FF8007FF8
FFF0007FF8007FF8
FFF0007FF8007FF8
FFF0007FF8007FF8
FFF0007FF8007FF8
FFF0007FF8007FF8
FFF0007FF8007FF8
FFF0007FF8007FF8
7FE0003FF0003FF0
3FC0001FE0001FE0
0F00000780000F80
ENDCHAR
STARTCHAR 004E
ENCODING 78
SWIDTH 460 0
DWIDTH 46 0
BBX 41 70 2 0
BITMAP
0001FFC00000
000FFFF80000
003FFFFE0000
00FFFFFF8000
01FFFFFFC000
03FFFFFFE000
07FFFFFFF000
0FFFFFFFF800
0FFFFFFFF800
1FFFFFFFFC00
3FFFFFFFFE00
3FFFC0FFFE00
7FFF003FFF00
7FFC000FFF00
7FFC000FFF00
7FF80007FF00
FFF80007FF80
FFF00003FF80
FFF00003FF80
FFF00003FF80
FFF00003FF80
FFF00003FF80
FFF00003FF80
FFF00003FF80
FFF00003FF80
FFF00003FF80
FFF00003FF80
FFF00003FF80
FFF00003FF80
FFF00003FF80
FFF00003FF80
FFF00003FF80
FFF00003FF80
FFF00003FF80
FFF00003FF80
FFF00003FF80
FFF00003FF80
FFF00003FF80
FFF00003FF80
FFF00003FF80
FFF00003FF80
FFF00003FF80
FFF00003FF80
FFF00003FF80
FFF00003FF80
FFF00003FF80
FFF00003FF80
FFF00003FF80
FFF00003FF80
FFF00003FF80
FFF00003FF80
FFF00003FF80
FFF00003FF80
FFF00003FF80
FFF00003FF80
FFF00003FF80
FFF00003FF80
FFF00003FF80
FFF00003FF80
FFF00003FF80
FFF00003FF80
FFF00003FF80
FFF00003FF80
FFF00003FF80
FFF00003FF80
FFF00003FF80
FFF00003FF80
7FE00001FF00
3FC00000FE00
0F8000007C00
ENDCHAR
STARTCHAR 004F
ENCODING 79
SWIDTH 460 0
DWIDTH 46 0
BBX 41 70 2 0
BITMAP
0001FFC00000
000FFFF80000
003FFFFE0000
00FFFFFF8000
01FFFFFFC000
03FFFFFFE000
07FFFFFFF000
0FFFFFFFF800
0FFFFFFFF800
1FFFFFFFFC00
3FFFFFFFFE00
3FFFC0FFFE00
7FFF003FFF00
7FFC000FFF00
7FFC000FFF00
7FF80007FF00
FFF80007FF80
FFF00003FF80
FFF00003FF80
FFF00003FF80
FFF00003FF80
FFF00003FF80
FFF00003FF80
FFF00003FF80
FFF00003FF80
FFF00003FF80
FFF00003FF80
FFF00003FF80
FFF00003FF80
FFF00003FF80
FFF00003FF80
FFF00003FF80
FFF00003FF80
FFF00003FF80
FFF00003FF80
FFF00003FF80
FFF00003FF80
FFF00003FF80
FFF00003FF80
FFF00003FF80
FFF00003FF80
FFF00003FF80
FFF00003FF80
FFF00003FF80
FFF00003FF80
FFF00003FF80
FFF00003FF80
FFF00003FF80
FFF00003FF80
FFF00003FF80
FFF00003FF80
FFF00003FF80
FFF00003FF80
FFF80007FF80
FFF80007FF00
7FFC000FFF00
7FFC000FFF00
7FFE003FFF00
3FFF80FFFE00
3FFFFFFFFE00
1FFFFFFFFC00
1FFFFFFFF800
0FFFFFFFF800
07FFFFFFF000
03FFFFFFE000
01FFFFFFC000
00FFFFFF8000
003FFFFE0000
000FFFF80000
0001FFC00000
ENDCHAR
STARTCHAR 0050
ENCODING 80
SWIDTH 460 0
DWIDTH 46 0
BBX 41 70 2 0
BITMAP
01FFFF800000
07FFFFF80000
0FFFFFFE0000
1FFFFFFF8000
3FFFFFFFC000
7FFFFFFFE000
7FFFFFFFF000
FFFFFFFFF800
FFFFFFFFFC00
FFFFFFFFFC00
FFFFFFFFFE00
FFF000FFFE00
FFF0003FFF00
FFF0000FFF00
FFF0000FFF00
FFF00007FF80
FFF00007FF80
FFF00003FF80
FFF00003FF80
FFF00003FF80
FFF00003FF80
FFF00003FF80
FFF00003FF80
FFF00007FF80
FFF00007FF80
FFF0000FFF00
FFF0000FFF00
FFF0003FFF00
FFF000FFFE00
FFFFFFFFFE00
FFFFFFFFFC00
FFFFFFFFFC00
FFFFFFFFF800
7FFFFFFFF000
7FFFFFFFE000
7FFFFFFFC000
7FFFFFFF8000
FFFFFFFE0000
FFFFFFF80000
FFFFFFC00000
FFF000000000
FFF000000000
FFF000000000
FFF000000000
FFF000000000
FFF000000000
FFF000000000
FFF000000000
FFF000000000
FFF000000000
FFF000000000
FFF000000000
FFF000000000
FFF000000000
FFF000000000
FFF000000000
FFF000000000
FFF000000000
FFF000000000
FFF000000000
FFF000000000
FFF000000000
FFF000000000
FFF000000000
FFF000000000
FFF000000000
FFF000000000
7FE000000000
3FC000000000
0F8000000000
ENDCHAR
STARTCHAR 0051
ENCODING 81
SWIDTH 460 0
DWIDTH 46 0
BBX 41 69 2 1
BITMAP
0001FFC00000
000FFFF80000
003FFFFE0000
00FFFFFF8000
01FFFFFFC000
03FFFFFFE000
07FFFFFFF000
0FFFFFFFF800
0FFFFFFFF800
1FFFFFFFFC00
3FFFFFFFFE00
3FFFC0FFFE00
7FFF003FFF00
7FFC000FFF00
7FFC000FFF00
FFF80007FF00
FFF80007FF80
FFF00003FF80
FFF00003FF80
FFF00003FF80
FFF00003FF80
FFF00003FF80
FFF00003FF80
FFF00003FF80
FFF00003FF80
FFF00003FF80
FFF00003FF80
FFF00003FF80
FFF00003FF80
FFF00003FF80
FFF00003FF80
FFF00003FF80
FFF00003FF80
FFF00003FF80
FFF00003FF80
FFF00003FF80
FFF00003FF80
FFF00003FF80
FFF00003FF80
FFF00003FF80
FFF00003FF80
FFF00003FF80
FFF00003FF80
FFF00003FF80
FFF03F03FF80
FFF07F83FF80
FFF0FFC3FF80
FFF1FFE3FF80
FFF1FFE3FF80
FFF1FFE3FF80
FFF1FFE3FF80
FFF1FFE3FF80
FFF1FFE3FF80
FFF9FFE7FF80
7FF9FFE7FF00
7FFDFFEFFF00
7FFFFFFFFF00
3FFFFFFFFE00
3FFFFFFFFE00
1FFFFFFFFC00
1FFFFFFFFC00
0FFFFFFFF800
07FFFFFFF800
07FFFFFFF000
03FFFFFFE000
01FFFFFFC000
007FFFFF0000
001FFFFE0000
0007F7F00000
ENDCHAR
STARTCHAR 0052
ENCODING 82
SWIDTH 460 0
DWIDTH 46 0
BBX 41 70 2 0
BITMAP
01FFFF800000
07FFFFF80000
0FFFFFFE0000
1FFFFFFF0000
3FFFFFFFC000
7FFFFFFFE000
7FFFFFFFF000
FFFFFFFFF800
FFFFFFFFFC00
FFFFFFFFFC00
FFFFFFFFFE00
FFF000FFFE00
FFF0003FFF00
FFF0000FFF00
FFF0000FFF00
FFF00007FF80
FFF00007FF80
FFF00003FF80
FFF00003FF80
FFF00003FF80
FFF00003FF80
FFF00003FF80
FFF00003FF80
FFF00007FF80
FFF00007FF80
FFF0000FFF00
FFF0000FFF00
FFF0003FFF00
FFF000FFFF00
FFFFFFFFFE00
FFFFFFFFFE00
FFFFFFFFFC00
FFFFFFFFF800
7FFFFFFFF800
7FFFFFFFF000
7FFFFFFFF000
7FFFFFFFF800
FFFFFFFFF800
FFFFFFFFFC00
FFFFFFFFFE00
FFF000FFFE00
FFF0003FFF00
FFF0000FFF00
FFF0000FFF00
FFF00007FF00
FFF00007FF80
FFF00003FF80
FFF00003FF80
FFF00003FF80
FFF00003FF80
FFF00003FF80
FFF00003FF80
FFF00003FF80
FFF00003FF80
FFF00003FF80
FFF00003FF80
FFF00003FF80
FFF00003FF80
FFF00003FF80
FFF00003FF80
FFF00003FF80
FFF00003FF80
FFF00003FF80
FFF00003FF80
FFF00003FF80
FFF00003FF80
FFF00003FF80
7FE00001FF00
3FC00000FE00
0F8000007C00
ENDCHAR
STARTCHAR 0053
ENCODING 83
SWIDTH 460 0
DWIDTH 46 0
BBX 41 70 2 0
BITMAP
0001FFC00000
000FFFF80000
003FFFFE0000
00FFFFFF8000
01FFFFFFC000
03FFFFFFE000
07FFFFFFF000
0FFFFFFFF800
1FFFFFFFFC00
1FFFFFFFFC00
3FFFFFFFFE00
3FFFC0FFFE00
7FFF003FFF00
7FFC000FFF00
7FFC000FFF00
FFF80007FF80
FFF80007FF80
FFF00003FF80
FFF00003FF80
FFF00003FF80
FFF00003FF80
FFF00003FF80
FFF00003FF00
FFF00001FF00
FFF80000FE00
7FF800003800
7FFC00000000
7FFE00000000
3FFF80000000
3FFFFFC00000
1FFFFFF80000
1FFFFFFE0000
0FFFFFFF8000
07FFFFFFC000
03FFFFFFE000
01FFFFFFF000
00FFFFFFF800
003FFFFFF800
000FFFFFFC00
0001FFFFFE00
000000FFFE00
0000003FFF00
0000000FFF00
0000000FFF00
0F000007FF00
3FC00007FF80
7FE00003FF80
7FE00003FF80
FFF00003FF80
FFF00003FF80
FFF00003FF80
FFF00003FF80
FFF00003FF80
FFF80007FF80
FFF80007FF00
7FFC000FFF00
7FFC000FFF00
7FFE003FFF00
3FFF80FFFE00
3FFFFFFFFE00
1FFFFFFFFC00
1FFFFFFFF800
0FFFFFFFF800
07FFFFFFF000
03FFFFFFE000
01FFFFFFC000
00FFFFFF8000
003FFFFE0000
000FFFF80000
0001FFC00000
ENDCHAR
STARTCHAR 0054
ENCODING 84
SWIDTH 460 0
DWIDTH 46 0
BBX 42 70 2 0
BITMAP
0FFFE1FFFC00
3FFFFFFFFF00
7FFFFFFFFF80
7FFFFFFFFF80
FFFFFFFFFFC0
FFFFFFFFFFC0
FFFFFFFFFFC0
7FFFFFFFFF80
7FFFFFFFFF80
3FFFFFFFFF00
1FFFFFFFFC00
0001FFE00000
0001FFE00000
0001FFE00000
0001FFE00000
0001FFE00000
0001FFE00000
0001FFE00000
0001FFE00000
0001FFE00000
0001FFE00000
0001FFE00000
0001FFE00000
0001FFE00000
0001FFE00000
0001FFE00000
0001FFE00000
0001FFE00000
0001FFE00000
0001FFE00000
0001FFE00000
0001FFE00000
0001FFE00000
0001FFE00000
0001FFE00000
0001FFE00000
0001FFE00000
0001FFE00000
0001FFE00000
0001FFE00000
0001FFE00000
0001FFE00000
0001FFE00000
0001FFE00000
0001FFE00000
0001FFE00000
0001FFE00000
0001FFE00000
0001FFE00000
0001FFE00000
0001FFE00000
0001FFE00000
0001FFE00000
0001FFE00000
0001FFE00000
0001FFE00000
0001FFE00000
0001FFE00000
0001FFE00000
0001FFE00000
0001FFE00000
0001FFE00000
0001FFE00000
0001FFE00000
0001FFE00000
0001FFE00000
0001FFE00000
0000FFC00000
00007F800000
00003E000000
ENDCHAR
STARTCHAR 0055
ENCODING 85
SWIDTH 460 0
DWIDTH 46 0
BBX 41 70 2 0
BITMAP
0F8000007C00
3FC00000FE00
7FE00001FF00
FFF00003FF80
FFF00003FF80
FFF00003FF80
FFF00003FF80
FFF00003FF80
FFF00003FF80
FFF00003FF80
FFF00003FF80
FFF00003FF80
FFF00003FF80
FFF00003FF80
FFF00003FF80
FFF00003FF80
FFF00003FF80
FFF00003FF80
FFF00003FF80
FFF00003FF80
FFF00003FF80
FFF00003FF80
FFF00003FF80
FFF00003FF80
FFF00003FF80
FFF00003FF80
FFF00003FF80
FFF00003FF80
FFF00003FF80
FFF00003FF80
FFF00003FF80
FFF00003FF80
FFF00003FF80
FFF00003FF80
FFF00003FF80
FFF00003FF80
FFF00003FF80
FFF00003FF80
FFF00003FF80
FFF00003FF80
FFF00003FF80
FFF00003FF80
FFF00003FF80
FFF00003FF80
FFF00003FF80
FFF00003FF80
FFF00003FF80
FFF00003FF80
FFF00003FF80
FFF00003FF80
FFF00003FF80
FFF00003FF80
FFF00003FF80
FFF80007FF80
FFF80007FF00
7FFC000FFF00
7FFC000FFF00
7FFE003FFF00
3FFF80FFFE00
3FFFFFFFFE00
1FFFFFFFFC00
1FFFFFFFF800
0FFFFFFFF800
07FFFFFFF000
03FFFFFFE000
01FFFFFFC000
00FFFFFF8000
003FFFFE0000
000FFFF80000
0001FFC00000
ENDCHAR
STARTCHAR 0056
ENCODING 86
SWIDTH 460 0
DWIDTH 46 0
BBX 41 70 2 0
BITMAP
0F8000007C00
3FC00000FE00
7FE00001FF00
FFF00003FF80
FFF00003FF80
FFF00003FF80
FFF00003FF80
FFF00003FF80
FFF00003FF80
FFF00003FF80
FFF00003FF80
FFF00003FF80
FFF00003FF80
FFF00003FF80
FFF00003FF80
FFF00003FF80
FFF00003FF80
FFF00003FF80
FFF00003FF80
FFF00003FF80
FFF00003FF80
FFF00003FF80
FFF00003FF80
FFF00003FF80
FFF00003FF80
FFF00003FF80
FFF00003FF80
FFF00003FF80
FFF00003FF80
FFF00003FF80
FFF00003FF80
FFF00003FF80
FFF00003FF80
FFF00003FF80
FFF00003FF80
FFF00003FF80
FFF00003FF80
FFF00003FF80
FFF00003FF80
FFF00003FF80
FFF00003FF80
FFF00003FF80
FFF80007FF80
7FF80007FF00
7FF80007FF00
7FF80007FF00
7FFC000FFF00
7FFC000FFF00
3FFC000FFE00
3FFE001FFE00
3FFE003FFE00
1FFF003FFC00
1FFF807FFC00
0FFFC0FFF800
0FFFE1FFF800
07FFF3FFF000
07FFFFFFF000
03FFFFFFE000
01FFFFFFC000
00FFFFFF8000
007FFFFF0000
003FFFFE0000
001FFFFC0000
000FFFF80000
0007FFF00000
0003FFE00000
0001FFC00000
0000FF800000
00007F000000
00003E000000
ENDCHAR
STARTCHAR 0057
ENCODING 87
SWIDTH 660 0
DWIDTH 66 0
BBX 61 70 2 0
BITMAP
0F000007C0000780
3FC0001FE0001FE0
7FE0003FF0003FF0
FFF0007FF8007FF8
FFF0007FF8007FF8
FFF0007FF8007FF8
FFF0007FF8007FF8
FFF0007FF8007FF8
FFF0007FF8007FF8
FFF0007FF8007FF8
FFF0007FF8007FF8
FFF0007FF8007FF8
FFF0007FF8007FF8
FFF0007FF8007FF8
FFF0007FF8007FF8
FFF0007FF8007FF8
FFF0007FF8007FF8
FFF0007FF8007FF8
FFF0007FF8007FF8
FFF0007FF8007FF8
FFF0007FF8007FF8
FFF0007FF8007FF8
FFF0007FF8007FF8
FFF0007FF8007FF8
FFF0007FF8007FF8
FFF0007FF8007FF8
FFF0007FF8007FF8
FFF0007FF8007FF8
FFF0007FF8007FF8
FFF0007FF8007FF8
FFF0007FF8007FF8
FFF0007FF8007FF8
FFF0007FF8007FF8
FFF0007FF8007FF8
FFF0007FF8007FF8
FFF0007FF8007FF8
FFF0007FF8007FF8
FFF0007FF8007FF8
FFF0007FF8007FF8
FFF0007FF8007FF8
FFF0007FF8007FF8
FFF0007FF8007FF8
FFF0007FF8007FF8
FFF0007FF8007FF8
FFF0007FF8007FF8
FFF0007FF8007FF8
FFF0007FF8007FF8
FFF0007FF8007FF8
FFF0007FF8007FF8
FFF0007FF8007FF8
FFF0007FF8007FF8
FFF0007FF8007FF8
FFF0007FF8007FF8
FFF8007FF8007FF8
FFF8007FF800FFF8
7FFC007FF800FFF0
7FFC007FF801FFF0
7FFE007FF803FFF0
3FFF807FF80FFFE0
3FFFFFFFFFFFFFE0
1FFFFFFFFFFFFFC0
0FFFFFFFFFFFFFC0
0FFFFFFFFFFFFF80
07FFFFFFFFFFFF00
03FFFFFFFFFFFE00
01FFFFFFFFFFFC00
00FFFFFFFFFFF000
003FFFFFFFFFE000
000FFFFFFFFF8000
0001FFF8FFF80000
ENDCHAR
STARTCHAR 0058
ENCODING 88
SWIDTH 460 0
DWIDTH 46 0
BBX 41 70 2 0
BITMAP
0F8000007C00
3FC00000FE00
7FE00001FF00
FFF00003FF80
FFF00003FF80
FFF00003FF80
FFF00003FF80
FFF00003FF80
FFF00003FF80
FFF00003FF80
FFF00003FF80
FFF00003FF80
FFF00003FF80
FFF00003FF80
FFF00003FF80
FFF00003FF80
FFF00003FF80
FFF00003FF80
FFF00003FF80
FFF00003FF80
FFF00003FF80
FFF00003FF80
FFF00003FF80
FFF80007FF80
FFF80007FF80
7FFC000FFF00
7FFC000FFF00
7FFE001FFF00
3FFF80FFFE00
3FFFFFFFFE00
1FFFFFFFFC00
1FFFFFFFFC00
0FFFFFFFF800
07FFFFFFF800
07FFFFFFF000
07FFFFFFF000
07FFFFFFF800
0FFFFFFFF800
1FFFFFFFFC00
1FFFFFFFFC00
3FFFC0FFFE00
3FFF003FFE00
7FFC000FFF00
7FFC000FFF00
7FF80007FF00
FFF80007FF80
FFF00003FF80
FFF00003FF80
FFF00003FF80
FFF00003FF80
FFF00003FF80
FFF00003FF80
FFF00003FF80
FFF00003FF80
FFF00003FF80
FFF00003FF80
FFF00003FF80
FFF00003FF80
FFF00003FF80
FFF00003FF80
FFF00003FF80
FFF00003FF80
FFF00003FF80
FFF00003FF80
FFF00003FF80
FFF00003FF80
FFF00003FF80
7FE00001FF00
3FC00000FE00
0F8000007C00
ENDCHAR
STARTCHAR 0059
ENCODING 89
SWIDTH 460 0
DWIDTH 46 0
BBX 41 70 2 0
BITMAP
0F8000007C00
3FC00000FE00
7FE00001FF00
FFF00003FF80
FFF00003FF80
FFF00003FF80
FFF00003FF80
FFF00003FF80
FFF00003FF80
FFF00003FF80
FFF00003FF80
FFF00003FF80
FFF00003FF80
FFF00003FF80
FFF00003FF80
FFF00003FF80
FFF00003FF80
FFF00003FF80
FFF00003FF80
FFF00003FF80
FFF00003FF80
FFF00003FF80
FFF00003FF80
FFF00007FF80
FFF80007FF80
7FF80007FF00
7FFC000FFF00
7FFE001FFF00
3FFF003FFE00
3FFFE1FFFE00
1FFFFFFFFC00
1FFFFFFFFC00
0FFFFFFFF800
07FFFFFFF800
07FFFFFFF000
03FFFFFFE000
01FFFFFFC000
007FFFFF8000
001FFFFE0000
0007FFF80000
0001FFE00000
0001FFE00000
0001FFE00000
0001FFE00000
0001FFE00000
0001FFE00000
0001FFE00000
0001FFE00000
0001FFE00000
0001FFE00000
0001FFE00000
0001FFE00000
0001FFE00000
0001FFE00000
0001FFE00000
0001FFE00000
0001FFE00000
0001FFE00000
0001FFE00000
0001FFE00000
0001FFE00000
0001FFE00000
0001FFE00000
0001FFE00000
0001FFE00000
0001FFE00000
0001FFC00000
0000FFC00000
00007F800000
00003E000000
ENDCHAR
STARTCHAR 005A
ENCODING 90
SWIDTH 460 0
DWIDTH 46 0
BBX 42 70 2 0
BITMAP
0FFFFFFFC000
3FFFFFFFF000
7FFFFFFFFC00
7FFFFFFFFE00
7FFFFFFFFF00
FFFFFFFFFF00
7FFFFFFFFF80
7FFFFFFFFF80
7FFFFFFFFF80
3FFFFFFFFF80
0FFFFFFFFFC0
00000007FF80
00000007FF80
0000000FFF80
0000001FFF80
0000001FFF00
0000003FFF00
0000007FFE00
0000007FFE00
000000FFFC00
000000FFF800
000001FFF800
000003FFF000
000003FFF000
000007FFE000
00000FFFC000
00000FFFC000
00001FFF8000
00003FFF0000
00003FFF0000
00007FFE0000
0000FFFC0000
0000FFFC0000
0001FFF80000
0003FFF00000
0003FFF00000
0007FFE00000
000FFFC00000
000FFFC00000
001FFF800000
003FFF000000
003FFF000000
007FFE000000
00FFFC000000
00FFFC000000
01FFF8000000
03FFF0000000
03FFF0000000
07FFE0000000
07FFE0000000
0FFFC0000000
1FFF80000000
1FFF80000000
3FFF00000000
3FFE00000000
7FFE00000000
7FFC00000000
7FFC00000000
7FF800000000
FFFFFFFFFC00
7FFFFFFFFF00
7FFFFFFFFF80
7FFFFFFFFF80
7FFFFFFFFF80
3FFFFFFFFFC0
3FFFFFFFFF80
1FFFFFFFFF80
0FFFFFFFFF80
03FFFFFFFF00
00FFFFFFFC00
ENDCHAR
STARTCHAR 005B
ENCODING 91
SWIDTH 310 0
DWIDTH 31 0
BBX 27 70 2 0
BITMAP
00FFFE00
07FFFF80
0FFFFFC0
1FFFFFC0
3FFFFFE0
7FFFFFE0
7FFFFFE0
FFFFFFC0
FFFFFFC0
FFFFFF80
FFFFFE00
FFF00000
FFF00000
FFF00000
FFF00000
FFF00000
FFF00000
FFF00000
FFF00000
FFF00000
FFF00000
FFF00000
FFF00000
FFF00000
FFF00000
FFF00000
FFF00000
FFF00000
FFF00000
FFF00000
FFF00000
FFF00000
FFF00000
FFF00000
FFF00000
FFF00000
FFF00000
FFF00000
FFF00000
FFF00000
FFF00000
FFF00000
FFF00000
FFF00000
FFF00000
FFF00000
FFF00000
FFF00000
FFF00000
FFF00000
FFF00000
FFF00000
FFF00000
FFF00000
FFF00000
FFF00000
FFF00000
FFF00000
FFF00000
FFFFFE00
FFFFFF80
FFFFFFC0
FFFFFFC0
7FFFFFE0
7FFFFFE0
3FFFFFE0
1FFFFFC0
0FFFFFC0
07FFFF80
01FFFE00
ENDCHAR
STARTCHAR 005C
ENCODING 92
SWIDTH 460 0
DWIDTH 46 0
BBX 41 70 2 0
BITMAP
0F8000000000
3FC000000000
7FE000000000
FFF000000000
FFF000000000
FFF000000000
FFF000000000
FFF000000000
FFF000000000
FFF800000000
7FF800000000
7FFC00000000
7FFC00000000
3FFC00000000
3FFE00000000
3FFF00000000
1FFF00000000
1FFF80000000
0FFF80000000
0FFFC0000000
07FFC0000000
07FFE0000000
03FFF0000000
03FFF0000000
01FFF8000000
00FFF8000000
00FFFC000000
007FFE000000
003FFE000000
003FFF000000
001FFF800000
001FFF800000
000FFFC00000
0007FFE00000
0007FFE00000
0003FFF00000
0001FFF80000
0000FFF80000
0000FFFC0000
00007FFE0000
00003FFE0000
00003FFF0000
00001FFF0000
00000FFF8000
00000FFFC000
000007FFC000
000003FFE000
000003FFE000
000001FFF000
000001FFF000
000000FFF800
0000007FF800
0000007FFC00
0000003FFC00
0000003FFE00
0000001FFE00
0000001FFE00
0000000FFF00
0000000FFF00
00000007FF00
00000007FF80
00000007FF80
00000003FF80
00000003FF80
00000003FF80
00000003FF80
00000003FF80
00000001FF00
00000000FE00
000000007C00
ENDCHAR
STARTCHAR 005D
ENCODING 93
SWIDTH 310 0
DWIDTH 31 0
BBX 26 70 2 0
BITMAP
0FFFE000
3FFFF800
7FFFFE00
7FFFFF00
FFFFFF00
FFFFFF80
FFFFFF80
7FFFFFC0
7FFFFFC0
3FFFFFC0
1FFFFFC0
0001FFC0
0001FFC0
0001FFC0
0001FFC0
0001FFC0
0001FFC0
0001FFC0
0001FFC0
0001FFC0
0001FFC0
0001FFC0
0001FFC0
0001FFC0
0001FFC0
0001FFC0
0001FFC0
0001FFC0
0001FFC0
0001FFC0
0001FFC0
0001FFC0
0001FFC0
0001FFC0
0001FFC0
0001FFC0
0001FFC0
0001FFC0
0001FFC0
0001FFC0
0001FFC0
0001FFC0
0001FFC0
0001FFC0
0001FFC0
0001FFC0
0001FFC0
0001FFC0
0001FFC0
0001FFC0
0001FFC0
0001FFC0
0001FFC0
0001FFC0
0001FFC0
0001FFC0
0001FFC0
0001FFC0
0001FFC0
0FFFFFC0
3FFFFFC0
7FFFFFC0
7FFFFFC0
FFFFFF80
FFFFFF80
FFFFFF00
7FFFFE00
7FFFFE00
3FFFF800
0FFFE000
ENDCHAR
STARTCHAR 005E
ENCODING 94
SWIDTH 460 0
DWIDTH 46 0
BBX 41 26 2 44
BITMAP
00001E000000
00007F800000
0000FFC00000
0000FFC00000
0003FFF00000
000FFFFC0000
003FFFFF0000
007FFFFF8000
01FFFFFFE000
03FFFFFFF000
0FFFFFFFF800
0FFFFFFFFC00
1FFFFFFFFE00
3FFFFFFFFF00
3FFFF3FFFF00
7FFFC0FFFF80
7FFF003FFF80
7FFC000FFF80
7FF80007FF80
7FF00003FF80
FFF00003FF80
7FF00003FF80
7FF00001FF80
7FE00001FF80
3FC00000FF00
0F8000007C00
ENDCHAR
STARTCHAR 005F
ENCODING 95
SWIDTH 460 0
DWIDTH 46 0
BBX 41 12 2 -15
BITMAP
0FFFFFFFFC00
3FFFFFFFFE00
3FFFFFFFFF00
7FFFFFFFFF80
7FFFFFFFFF80
7FFFFFFFFF80
FFFFFFFFFF80
7FFFFFFFFF80
7FFFFFFFFF80
3FFFFFFFFF00
3FFFFFFFFF00
0FFFFFFFFC00
ENDCHAR
STARTCHAR 0060
ENCODING 96
SWIDTH 160 0
DWIDTH 16 0
BBX 11 26 3 44
BITMAP
1F00
3F80
7FC0
FFE0
FFE0
FFE0
FFE0
FFE0
FFE0
FFE0
FFE0
FFE0
FFE0
FFE0
FFE0
FFE0
FFE0
FFE0
FFE0
FFE0
FFE0
FFE0
FFE0
7FC0
3F80
1F00
ENDCHAR
STARTCHAR 0061
ENCODING 97
SWIDTH 460 0
DWIDTH 46 0
BBX 42 41 2 0
BITMAP
00001FFC0000
00007FFF8000
0000FFFFE000
0000FFFFF000
0001FFFFF800
0001FFFFFC00
0001FFFFFE00
0000FFFFFE00
0000FFFFFF00
00007FFFFF00
00001FFFFF80
0000000FFF80
00000007FF80
00000003FF80
00000003FF80
00FFFFFFFFC0
03FFFFFFFF80
0FFFFFFFFF80
1FFFFFFFFF80
3FFFFFFFFF80
3FFFFFFFFF00
7FFFFFFFFF80
7FFFFFFFFF80
7FFFFFFFFF80
7FFFFFFFFF80
FFFFFFFFFFC0
FFFFFFFFFFC0
7FF00003FFC0
7FF80003FFC0
7FFC0003FFC0
7FFFFFFFFF80
3FFFFFFFFF80
3FFFFFFFFF80
1FFFFFFFFF80
1FFFFFFFFF80
0FFFFFFFFF00
07FFFFFFFF00
03FFFFFFFE00
01FFFFFFFC00
007FFFFFF800
000FFFFFC000
ENDCHAR
STARTCHAR 0062
ENCODING 98
SWIDTH 460 0
DWIDTH 46 0
BBX 41 70 2 0
BITMAP
0F8000000000
3FC000000000
7FE000000000
FFF000000000
FFF000000000
FFF000000000
FFF000000000
FFF000000000
FFF000000000
FFF000000000
FFF000000000
FFF000000000
FFF000000000
FFF000000000
FFF000000000
FFF000000000
FFF000000000
FFF000000000
FFF000000000
FFF000000000
FFF000000000
FFF000000000
FFF000000000
FFF000000000
FFF000000000
FFF000000000
FFF000000000
FFF000000000
FFF000000000
FFFFFF800000
FFFFFFF80000
FFFFFFFE0000
FFFFFFFF8000
7FFFFFFFC000
7FFFFFFFE000
7FFFFFFFF000
7FFFFFFFF800
FFFFFFFFFC00
FFFFFFFFFC00
FFFFFFFFFE00
FFF000FFFE00
FFF0003FFF00
FFF0001FFF00
FFF0000FFF00
FFF00007FF80
FFF00007FF80
FFF00003FF80
FFF00003FF80
FFF00003FF80
FFF00003FF80
FFF00003FF80
FFF00003FF80
FFF00003FF80
FFF00007FF80
FFF00007FF80
FFF0000FFF00
FFF0000FFF00
FFF0003FFF00
FFF000FFFE00
FFFFFFFFFE00
FFFFFFFFFC00
FFFFFFFFFC00
FFFFFFFFF800
7FFFFFFFF000
7FFFFFFFE000
3FFFFFFFC000
1FFFFFFF0000
0FFFFFFE0000
07FFFFF80000
01FFFF800000
ENDCHAR
STARTCHAR 0063
ENCODING 99
SWIDTH 460 0
DWIDTH 46 0
BBX 42 41 2 0
BITMAP
0000FFFFFC00
0007FFFFFF00
001FFFFFFF80
007FFFFFFF80
00FFFFFFFF80
03FFFFFFFFC0
07FFFFFFFF80
0FFFFFFFFF80
0FFFFFFFFF80
1FFFFFFFFF00
3FFFFFFFFC00
3FFFC0000000
7FFF00000000
7FFC00000000
7FFC00000000
7FF800000000
FFF800000000
FFF000000000
FFF000000000
FFF000000000
FFF000000000
FFF000000000
FFF000000000
FFF000000000
FFF800000000
FFF800000000
7FFC00000000
7FFC00000000
7FFF00000000
3FFFC0000000
3FFFFFFFFC00
1FFFFFFFFF00
1FFFFFFFFF80
0FFFFFFFFF80
07FFFFFFFF80
03FFFFFFFFC0
00FFFFFFFF80
007FFFFFFF80
001FFFFFFF80
0007FFFFFF00
0000FFFFFC00
ENDCHAR
STARTCHAR 0064
ENCODING 100
SWIDTH 460 0
DWIDTH 46 0
BBX 41 70 2 0
BITMAP
000000007C00
00000000FE00
00000001FF00
00000003FF80
00000003FF80
00000003FF80
00000003FF80
00000003FF80
00000003FF80
00000003FF80
00000003FF80
00000003FF80
00000003FF80
00000003FF80
00000003FF80
00000003FF80
00000003FF80
00000003FF80
00000003FF80
00000003FF80
00000003FF80
00000003FF80
00000003FF80
00000003FF80
00000003FF80
00000003FF80
00000003FF80
00000003FF80
00000003FF80
0000FFFFFF80
0007FFFFFF80
003FFFFFFF80
007FFFFFFF80
01FFFFFFFF00
03FFFFFFFF00
07FFFFFFFF00
0FFFFFFFFF00
1FFFFFFFFF80
1FFFFFFFFF80
3FFFFFFFFF80
3FFFC003FF80
7FFF0003FF80
7FFC0003FF80
7FFC0003FF80
FFF80003FF80
FFF80003FF80
FFF00003FF80
FFF00003FF80
FFF00003FF80
FFF00003FF80
FFF00003FF80
FFF00003FF80
FFF00003FF80
FFF80003FF80
FFF80003FF80
7FFC0003FF80
7FFC0003FF80
7FFF0003FF80
3FFFC003FF80
3FFFFFFFFF80
1FFFFFFFFF80
1FFFFFFFFF80
0FFFFFFFFF80
07FFFFFFFF00
03FFFFFFFF00
01FFFFFFFE00
007FFFFFFC00
003FFFFFF800
000FFFFFF000
0000FFFFC000
ENDCHAR
STARTCHAR 0065
ENCODING 101
SWIDTH 460 0
DWIDTH 46 0
BBX 42 41 2 0
BITMAP
000FFFFC0000
007FFFFF8000
01FFFFFFE000
03FFFFFFF000
07FFFFFFF800
0FFFFFFFFC00
1FFFFFFFFE00
1FFFFFFFFE00
3FFFFFFFFF00
3FFFFFFFFF00
7FFFFFFFFF80
7FFC000FFF80
7FF80007FF80
7FF00003FF80
7FF00003FF80
FFFFFFFFFFC0
7FFFFFFFFF80
7FFFFFFFFF80
7FFFFFFFFF80
7FFFFFFFFF80
3FFFFFFFFF80
7FFFFFFFFF00
7FFFFFFFFF00
7FFFFFFFFE00
7FFFFFFFFC00
FFFFFFFFF000
FFFFFFFFC000
7FF000000000
7FF800000000
7FFC00000000
7FFFFE000000
3FFFFF800000
3FFFFFC00000
1FFFFFC00000
1FFFFFE00000
0FFFFFE00000
07FFFFE00000
03FFFFC00000
01FFFFC00000
007FFF800000
000FFE000000
ENDCHAR
STARTCHAR 0066
ENCODING 102
SWIDTH 460 0
DWIDTH 46 0
BBX 42 70 2 0
BITMAP
0000FFFFFC00
0007FFFFFF00
003FFFFFFF80
007FFFFFFF80
01FFFFFFFF80
03FFFFFFFFC0
07FFFFFFFF80
07FFFFFFFF80
0FFFFFFFFF80
1FFFFFFFFF00
3FFFFFFFFC00
3FFFC0000000
3FFF00000000
7FFC00000000
7FFC00000000
7FF800000000
FFF800000000
FFF000000000
FFF000000000
FFF000000000
FFF000000000
FFF000000000
FFF000000000
FFF000000000
FFF000000000
FFF000000000
FFF000000000
FFF000000000
FFF000000000
FFFFFE000000
FFFFFF800000
FFFFFFC00000
FFFFFFC00000
7FFFFFE00000
7FFFFFE00000
7FFFFFE00000
7FFFFFC00000
FFFFFFC00000
FFFFFF800000
FFFFFE000000
FFF000000000
FFF000000000
FFF000000000
FFF000000000
FFF000000000
FFF000000000
FFF000000000
FFF000000000
FFF000000000
FFF000000000
FFF000000000
FFF000000000
FFF000000000
FFF000000000
FFF000000000
FFF000000000
FFF000000000
FFF000000000
FFF000000000
FFF000000000
FFF000000000
FFF000000000
FFF000000000
FFF000000000
FFF000000000
FFF000000000
FFF000000000
7FE000000000
3FC000000000
0F8000000000
ENDCHAR
STARTCHAR 0067
ENCODING 103
SWIDTH 460 0
DWIDTH 46 0
BBX 41 56 2 -15
BITMAP
0000FFFFC000
000FFFFFF000
003FFFFFF800
007FFFFFFC00
01FFFFFFFE00
03FFFFFFFF00
07FFFFFFFF00
0FFFFFFFFF80
1FFFFFFFFF80
1FFFFFFFFF80
3FFFFFFFFF80
3FFFC003FF80
7FFF0003FF80
7FFC0003FF80
7FFC0003FF80
FFF80003FF80
FFF80003FF80
FFF00003FF80
FFF00003FF80
FFF00003FF80
FFF00003FF80
FFF00003FF80
FFF00003FF80
FFF00003FF80
FFF80003FF80
FFF80003FF80
7FFC0003FF80
7FFC0003FF80
7FFF0003FF80
3FFFC003FF80
3FFFFFFFFF80
1FFFFFFFFF80
1FFFFFFFFF80
0FFFFFFFFF80
07FFFFFFFF80
03FFFFFFFF00
01FFFFFFFF80
007FFFFFFF80
003FFFFFFF80
000FFFFFFF80
0000FFFFFF80
00000003FF80
00000007FF80
0000000FFF80
00003FFFFF80
00007FFFFF80
0000FFFFFF00
0001FFFFFF00
0001FFFFFE00
0001FFFFFE00
0001FFFFFC00
0001FFFFF800
0001FFFFF000
0000FFFFE000
00007FFF8000
00003FFC0000
ENDCHAR
STARTCHAR 0068
ENCODING 104
SWIDTH 460 0
DWIDTH 46 0
BBX 41 70 2 0
BITMAP
0F8000000000
3FC000000000
7FE000000000
FFF000000000
FFF000000000
FFF000000000
FFF000000000
FFF000000000
FFF000000000
FFF000000000
FFF000000000
FFF000000000
FFF000000000
FFF000000000
FFF000000000
FFF000000000
FFF000000000
FFF000000000
FFF000000000
FFF000000000
FFF000000000
FFF000000000
FFF000000000
FFF000000000
FFF000000000
FFF000000000
FFF000000000
FFF000000000
FFF000000000
FFFFFF800000
FFFFFFF80000
FFFFFFFE0000
FFFFFFFF8000
7FFFFFFFC000
7FFFFFFFE000
7FFFFFFFF000
7FFFFFFFF800
FFFFFFFFFC00
FFFFFFFFFC00
FFFFFFFFFE00
FFF000FFFE00
FFF0003FFF00
FFF0000FFF00
FFF0000FFF00
FFF00007FF80
FFF00007FF80
FFF00003FF80
FFF00003FF80
FFF00003FF80
FFF00003FF80
FFF00003FF80
FFF00003FF80
FFF00003FF80
FFF00003FF80
FFF00003FF80
FFF00003FF80
FFF00003FF80
FFF00003FF80
FFF00003FF80
FFF00003FF80
FFF00003FF80
FFF00003FF80
FFF00003FF80
FFF00003FF80
FFF00003FF80
FFF00003FF80
FFF00003FF80
7FE00001FF00
3FC00000FE00
0F8000007C00
ENDCHAR
STARTCHAR 0069
ENCODING 105
SWIDTH 160 0
DWIDTH 16 0
BBX 11 56 3 0
BITMAP
1F00
3F80
7FC0
FFC0
FFE0
FFE0
FFE0
FFE0
FFE0
7FC0
3F80
1F00
0000
0000
0000
1F00
3F80
7FC0
FFE0
FFE0
FFE0
FFE0
FFE0
FFE0
FFE0
FFE0
FFE0
FFE0
FFE0
FFE0
FFE0
FFE0
FFE0
FFE0
FFE0
FFE0
FFE0
FFE0
FFE0
FFE0
FFE0
FFE0
FFE0
FFE0
FFE0
FFE0
FFE0
FFE0
FFE0
FFE0
FFE0
FFE0
FFE0
7FC0
3F80
1F00
ENDCHAR
STARTCHAR 006A
ENCODING 106
SWIDTH 310 0
DWIDTH 31 0
BBX 26 71 3 -15
BITMAP
00003C00
0000FF00
0001FF80
0001FF80
0003FFC0
0003FFC0
0003FFC0
0003FFC0
0001FF80
0001FF80
0000FF00
00003E00
00000000
00000000
00000000
00003C00
0000FF00
0001FF80
0001FF80
0001FF80
0003FFC0
0003FFC0
0003FFC0
0003FFC0
0003FFC0
0003FFC0
0003FFC0
0003FFC0
0003FFC0
0003FFC0
0003FFC0
0003FFC0
0003FFC0
0003FFC0
0003FFC0
0003FFC0
0003FFC0
0003FFC0
0003FFC0
0003FFC0
0003FFC0
0003FFC0
0003FFC0
0003FFC0
0003FFC0
0003FFC0
0003FFC0
0003FFC0
0003FFC0
0003FFC0
0003FF80
0003FF80
0003FF80
0003FF80
0003FF80
0007FF80
0007FF80
000FFF80
003FFF00
07FFFF00
3FFFFE00
7FFFFE00
FFFFFC00
FFFFF800
FFFFF800
FFFFF000
FFFFE000
FFFF8000
7FFF0000
3FFC0000
1FC00000
ENDCHAR
STARTCHAR 006B
ENCODING 107
SWIDTH 460 0
DWIDTH 46 0
BBX 41 70 2 0
BITMAP
0F8000000000
3FC000000000
7FE000000000
FFF000000000
FFF000000000
FFF000000000
FFF000000000
FFF000000000
FFF000000000
FFF000000000
FFF000000000
FFF000000000
FFF000000000
FFF000000000
FFF000003800
FFF00000FE00
FFF00001FF00
FFF00003FF00
FFF00003FF80
FFF00003FF80
FFF00003FF80
FFF00003FF80
FFF00003FF80
FFF00007FF80
FFF00007FF00
FFF0000FFF00
FFF0000FFF00
FFF0003FFF00
FFF000FFFE00
FFFFFFFFFE00
FFFFFFFFFC00
FFFFFFFFFC00
FFFFFFFFF800
7FFFFFFFF000
7FFFFFFFE000
7FFFFFFFF000
7FFFFFFFF800
FFFFFFFFFC00
FFFFFFFFFC00
FFFFFFFFFE00
FFF000FFFE00
FFF0003FFF00
FFF0000FFF00
FFF0000FFF00
FFF00007FF80
FFF00007FF80
FFF00003FF80
FFF00003FF80
FFF00003FF80
FFF00003FF80
FFF00003FF80
FFF00003FF80
FFF00003FF80
FFF00003FF80
FFF00003FF80
FFF00003FF80
FFF00003FF80
FFF00003FF80
FFF00003FF80
FFF00003FF80
FFF00003FF80
FFF00003FF80
FFF00003FF80
FFF00003FF80
FFF00003FF80
FFF00003FF80
FFF00003FF80
7FE00001FF00
3FC00000FE00
0F8000007C00
ENDCHAR
STARTCHAR 006C
ENCODING 108
SWIDTH 160 0
DWIDTH 16 0
BBX 11 70 3 0
BITMAP
1F00
3F80
7FC0
FFE0
FFE0
FFE0
FFE0
FFE0
FFE0
FFE0
FFE0
FFE0
FFE0
FFE0
FFE0
FFE0
FFE0
FFE0
FFE0
FFE0
FFE0
FFE0
FFE0
FFE0
FFE0
FFE0
FFE0
FFE0
FFE0
FFE0
FFE0
FFE0
FFE0
FFE0
FFE0
FFE0
FFE0
FFE0
FFE0
FFE0
FFE0
FFE0
FFE0
FFE0
FFE0
FFE0
FFE0
FFE0
FFE0
FFE0
FFE0
FFE0
FFE0
FFE0
FFE0
FFE0
FFE0
FFE0
FFE0
FFE0
FFE0
FFE0
FFE0
FFE0
FFE0
FFE0
FFE0
7FC0
3F80
1F00
ENDCHAR
STARTCHAR 006D
ENCODING 109
SWIDTH 660 0
DWIDTH 66 0
BBX 61 41 2 0
BITMAP
0000FFF8FFF80000
000FFFFFFFFF0000
003FFFFFFFFFE000
007FFFFFFFFFF000
01FFFFFFFFFFFC00
03FFFFFFFFFFFE00
07FFFFFFFFFFFF00
0FFFFFFFFFFFFF80
0FFFFFFFFFFFFFC0
1FFFFFFFFFFFFFC0
3FFFFFFFFFFFFFE0
3FFF807FF80FFFE0
7FFE007FF803FFF0
7FFC007FF801FFF0
7FFC007FF800FFF0
7FF8007FF800FFF8
FFF8007FF800FFF8
FFF0007FF8007FF8
FFF0007FF8007FF8
FFF0007FF8007FF8
FFF0007FF8007FF8
FFF0007FF8007FF8
FFF0007FF8007FF8
FFF0007FF8007FF8
FFF0007FF8007FF8
FFF0007FF8007FF8
FFF0007FF8007FF8
FFF0007FF8007FF8
FFF0007FF8007FF8
FFF0007FF8007FF8
FFF0007FF8007FF8
FFF0007FF8007FF8
FFF0007FF8007FF8
FFF0007FF8007FF8
FFF0007FF8007FF8
FFF0007FF8007FF8
FFF0007FF8007FF8
FFE0007FF0007FF8
7FE0003FF0003FF0
3FC0001FE0001FE0
0F00000F80000F80
ENDCHAR
STARTCHAR 006E
ENCODING 110
SWIDTH 460 0
DWIDTH 46 0
BBX 41 41 2 0
BITMAP
0001FFC00000
000FFFF80000
003FFFFE0000
00FFFFFF8000
01FFFFFFC000
03FFFFFFE000
07FFFFFFF000
0FFFFFFFF800
0FFFFFFFF800
1FFFFFFFFC00
3FFFFFFFFE00
3FFFC0FFFE00
7FFF003FFE00
7FFC000FFF00
7FFC000FFF00
7FF80007FF00
FFF80007FF80
FFF00003FF80
FFF00003FF80
FFF00003FF80
FFF00003FF80
FFF00003FF80
FFF00003FF80
FFF00003FF80
FFF00003FF80
FFF00003FF80
FFF00003FF80
FFF00003FF80
FFF00003FF80
FFF00003FF80
FFF00003FF80
FFF00003FF80
FFF00003FF80
FFF00003FF80
FFF00003FF80
FFF00003FF80
FFF00003FF80
FFF00003FF80
7FE00001FF00
3FC00000FE00
0F8000007C00
ENDCHAR
STARTCHAR 006F
ENCODING 111
SWIDTH 460 0
DWIDTH 46 0
BBX 42 41 2 0
BITMAP
0000FFC00000
0007FFF80000
001FFFFE0000
007FFFFF8000
00FFFFFFC000
01FFFFFFE000
03FFFFFFF000
07FFFFFFF800
0FFFFFFFFC00
1FFFFFFFFE00
1FFFFFFFFE00
3FFFC0FFFF00
3FFF003FFF00
3FFC000FFF00
7FFC000FFF80
7FF80007FF80
7FF80007FF80
7FF00003FF80
7FF00003FF80
7FF00003FF80
FFF00003FFC0
7FF00003FF80
7FF00003FF80
7FF00003FF80
7FF80007FF80
7FF80007FF80
7FFC000FFF80
3FFC000FFF00
3FFE003FFF00
3FFF80FFFF00
1FFFFFFFFE00
1FFFFFFFFE00
0FFFFFFFFC00
07FFFFFFF800
03FFFFFFF000
01FFFFFFE000
00FFFFFFC000
007FFFFF8000
003FFFFF0000
000FFFF80000
0000FFC00000
ENDCHAR
STARTCHAR 0070
ENCODING 112
SWIDTH 460 0
DWIDTH 46 0
BBX 41 56 2 -15
BITMAP
01FFFF800000
07FFFFF80000
0FFFFFFE0000
1FFFFFFF0000
3FFFFFFFC000
7FFFFFFFE000
7FFFFFFFF000
FFFFFFFFF800
FFFFFFFFFC00
FFFFFFFFFC00
FFFFFFFFFE00
FFF000FFFE00
FFF0003FFF00
FFF0001FFF00
FFF0000FFF00
FFF00007FF80
FFF00007FF80
FFF00003FF80
FFF00003FF80
FFF00003FF80
FFF00003FF80
FFF00003FF80
FFF00003FF80
FFF00003FF80
FFF00007FF80
FFF00007FF80
FFF0000FFF00
FFF0000FFF00
FFF0003FFF00
FFF000FFFE00
FFFFFFFFFE00
FFFFFFFFFC00
FFFFFFFFFC00
FFFFFFFFF800
7FFFFFFFF000
7FFFFFFFE000
7FFFFFFFC000
FFFFFFFF8000
FFFFFFFE0000
FFFFFFF80000
FFFFFFC00000
FFF000000000
FFF000000000
FFF000000000
FFF000000000
FFF000000000
FFF000000000
FFF000000000
FFF000000000
FFF000000000
FFF000000000
FFF000000000
FFF000000000
7FE000000000
3FC000000000
0F8000000000
ENDCHAR
STARTCHAR 0071
ENCODING 113
SWIDTH 460 0
DWIDTH 46 0
BBX 41 56 2 -15
BITMAP
0000FFFFC000
000FFFFFF000
003FFFFFF800
007FFFFFFC00
01FFFFFFFE00
03FFFFFFFF00
07FFFFFFFF00
0FFFFFFFFF80
1FFFFFFFFF80
1FFFFFFFFF80
3FFFFFFFFF80
3FFFC003FF80
7FFF0003FF80
7FFC0003FF80
7FFC0003FF80
FFF80003FF80
FFF80003FF80
FFF00003FF80
FFF00003FF80
FFF00003FF80
FFF00003FF80
FFF00003FF80
FFF00003FF80
FFF00003FF80
FFF80003FF80
FFF80003FF80
7FFC0003FF80
7FFC0003FF80
7FFF0003FF80
3FFFC003FF80
3FFFFFFFFF80
1FFFFFFFFF80
1FFFFFFFFF80
0FFFFFFFFF80
07FFFFFFFF00
03FFFFFFFF00
01FFFFFFFF00
007FFFFFFF80
003FFFFFFF80
000FFFFFFF80
0000FFFFFF80
00000003FF80
00000003FF80
00000003FF80
00000003FF80
00000003FF80
00000003FF80
00000003FF80
00000003FF80
00000003FF80
00000003FF80
00000003FF80
00000003FF80
00000001FF00
00000000FE00
000000007C00
ENDCHAR
STARTCHAR 0072
ENCODING 114
SWIDTH 460 0
DWIDTH 46 0
BBX 42 41 2 0
BITMAP
0000FFFFFC00
0007FFFFFF00
003FFFFFFF80
007FFFFFFF80
00FFFFFFFF80
03FFFFFFFFC0
07FFFFFFFF80
07FFFFFFFF80
0FFFFFFFFF80
1FFFFFFFFF00
1FFFFFFFFC00
3FFFC0000000
3FFF00000000
7FFC00000000
7FFC00000000
7FF800000000
FFF800000000
FFF000000000
FFF000000000
FFF000000000
FFF000000000
FFF000000000
FFF000000000
FFF000000000
FFF000000000
FFF000000000
FFF000000000
FFF000000000
FFF000000000
FFF000000000
FFF000000000
FFF000000000
FFF000000000
FFF000000000
FFF000000000
FFF000000000
FFF000000000
FFF000000000
7FE000000000
3FC000000000
0F8000000000
ENDCHAR
STARTCHAR 0073
ENCODING 115
SWIDTH 460 0
DWIDTH 46 0
BBX 42 41 2 0
BITMAP
000FFFFFFC00
007FFFFFFF00
01FFFFFFFF80
03FFFFFFFF80
07FFFFFFFF80
0FFFFFFFFFC0
1FFFFFFFFF80
1FFFFFFFFF80
3FFFFFFFFF80
3FFFFFFFFF00
7FFFFFFFFC00
7FFC00000000
7FF800000000
7FF000000000
7FF000000000
FFFFFFFFC000
FFFFFFFFF800
7FFFFFFFFC00
7FFFFFFFFE00
7FFFFFFFFF00
7FFFFFFFFF00
3FFFFFFFFF80
3FFFFFFFFF80
1FFFFFFFFF80
0FFFFFFFFF80
03FFFFFFFFC0
00FFFFFFFF80
00000003FF80
00000007FF80
0000000FFF80
0FFFFFFFFF80
3FFFFFFFFF00
7FFFFFFFFF00
7FFFFFFFFE00
7FFFFFFFFE00
FFFFFFFFFC00
7FFFFFFFF800
7FFFFFFFF000
7FFFFFFFE000
3FFFFFFF8000
0FFFFFFC0000
ENDCHAR
STARTCHAR 0074
ENCODING 116
SWIDTH 460 0
DWIDTH 46 0
BBX 42 56 2 0
BITMAP
00001E000000
00007F800000
0000FFC00000
0001FFE00000
0001FFE00000
0001FFE00000
0001FFE00000
0001FFE00000
0001FFE00000
0001FFE00000
0001FFE00000
0001FFE00000
0001FFE00000
0001FFE00000
0001FFE00000
0FFFFFFFFC00
3FFFFFFFFF00
7FFFFFFFFF80
7FFFFFFFFF80
FFFFFFFFFFC0
FFFFFFFFFFC0
FFFFFFFFFFC0
7FFFFFFFFF80
7FFFFFFFFF80
3FFFFFFFFF00
1FFFFFFFFC00
0001FFE00000
0001FFE00000
0001FFE00000
0001FFE00000
0001FFE00000
0001FFE00000
0001FFE00000
0001FFE00000
0001FFE00000
0001FFE00000
0001FFE00000
0001FFE00000
0001FFE00000
0001FFE00000
0001FFE00000
0001FFE00000
0001FFE00000
0001FFE00000
0001FFE00000
0001FFE00000
0001FFE00000
0001FFE00000
0001FFE00000
0001FFE00000
0001FFE00000
0001FFE00000
0001FFC00000
0000FFC00000
00007F800000
00003E000000
ENDCHAR
STARTCHAR 0075
ENCODING 117
SWIDTH 460 0
DWIDTH 46 0
BBX 41 41 2 0
BITMAP
0F8000007C00
3FC00000FE00
7FE00001FF00
FFF00003FF80
FFF00003FF80
FFF00003FF80
FFF00003FF80
FFF00003FF80
FFF00003FF80
FFF00003FF80
FFF00003FF80
FFF00003FF80
FFF00003FF80
FFF00003FF80
FFF00003FF80
FFF00003FF80
FFF00003FF80
FFF00003FF80
FFF00003FF80
FFF00003FF80
FFF00003FF80
FFF00003FF80
FFF00003FF80
FFF00003FF80
FFF80007FF80
FFF80007FF00
7FFC000FFF00
7FFC000FFF00
7FFE003FFF00
3FFF80FFFE00
3FFFFFFFFE00
1FFFFFFFFC00
0FFFFFFFF800
0FFFFFFFF800
07FFFFFFF000
03FFFFFFE000
01FFFFFFC000
00FFFFFF8000
003FFFFE0000
000FFFF80000
0001FFC00000
ENDCHAR
STARTCHAR 0076
ENCODING 118
SWIDTH 460 0
DWIDTH 46 0
BBX 41 41 2 0
BITMAP
0F8000007C00
3FC00000FE00
7FE00001FF00
FFF00003FF80
FFF00003FF80
FFF00003FF80
FFF00003FF80
FFF00003FF80
FFF00003FF80
FFF00003FF80
FFF00003FF80
FFF00003FF80
FFF00007FF80
FFF80007FF00
7FF80007FF00
7FF80007FF00
7FF80007FF00
7FFC000FFF00
7FFC000FFE00
3FFE001FFE00
3FFE001FFE00
3FFF003FFE00
1FFF007FFC00
1FFF80FFFC00
0FFFC1FFF800
0FFFF3FFF800
07FFFFFFF000
07FFFFFFF000
03FFFFFFE000
01FFFFFFC000
00FFFFFF8000
007FFFFF0000
003FFFFE0000
001FFFFC0000
000FFFF80000
0007FFF00000
0001FFE00000
0001FFC00000
0000FF800000
00007F000000
00003E000000
ENDCHAR
STARTCHAR 0077
ENCODING 119
SWIDTH 660 0
DWIDTH 66 0
BBX 61 41 2 0
BITMAP
0F000007C0000780
3FC0001FE0001FE0
7FE0003FF0003FF0
FFF0007FF8007FF8
FFF0007FF8007FF8
FFF0007FF8007FF8
FFF0007FF8007FF8
FFF0007FF8007FF8
FFF0007FF8007FF8
FFF0007FF8007FF8
FFF0007FF8007FF8
FFF0007FF8007FF8
FFF0007FF8007FF8
FFF0007FF8007FF8
FFF0007FF8007FF8
FFF0007FF8007FF8
FFF0007FF8007FF8
FFF0007FF8007FF8
FFF0007FF8007FF8
FFF0007FF8007FF8
FFF0007FF8007FF8
FFF0007FF8007FF8
FFF0007FF8007FF8
FFF0007FF8007FF8
FFF8007FF8007FF8
FFF8007FF800FFF8
7FFC007FF800FFF0
7FFC007FF801FFF0
7FFE007FF803FFF0
3FFF807FF80FFFE0
3FFFFFFFFFFFFFE0
1FFFFFFFFFFFFFC0
0FFFFFFFFFFFFFC0
0FFFFFFFFFFFFF80
07FFFFFFFFFFFF00
03FFFFFFFFFFFE00
01FFFFFFFFFFFC00
00FFFFFFFFFFF000
003FFFFFFFFFE000
000FFFFFFFFF8000
0001FFF8FFF80000
ENDCHAR
STARTCHAR 0078
ENCODING 120
SWIDTH 460 0
DWIDTH 46 0
BBX 41 41 2 0
BITMAP
0F8000007C00
3FC00000FE00
7FE00001FF00
FFF00003FF80
FFF00003FF80
FFF00003FF80
FFF00003FF80
FFF00003FF80
FFF00003FF80
FFF80007FF80
7FF80007FF00
7FFC000FFF00
7FFC000FFF00
7FFE003FFF00
3FFF80FFFE00
3FFFFFFFFE00
1FFFFFFFFC00
1FFFFFFFFC00
0FFFFFFFF800
07FFFFFFF000
03FFFFFFE000
07FFFFFFF000
0FFFFFFFF800
1FFFFFFFFC00
1FFFFFFFFC00
3FFFFFFFFE00
3FFFFFFFFE00
7FFF80FFFE00
7FFE001FFF00
7FFC000FFF00
7FF80007FF00
FFF80007FF80
FFF00003FF80
FFF00003FF80
FFF00003FF80
FFF00003FF80
FFF00003FF80
FFF00003FF80
7FE00001FF00
3FC00000FE00
0F8000007C00
ENDCHAR
STARTCHAR 0079
ENCODING 121
SWIDTH 460 0
DWIDTH 46 0
BBX 41 56 2 -15
BITMAP
0F8000007C00
3FC00000FE00
7FE00001FF00
FFF00003FF80
FFF00003FF80
FFF00003FF80
FFF00003FF80
FFF00003FF80
FFF00003FF80
FFF00003FF80
FFF00003FF80
FFF00003FF80
FFF00003FF80
FFF00003FF80
FFF00003FF80
FFF00003FF80
FFF00003FF80
FFF00003FF80
FFF00003FF80
FFF00003FF80
FFF00003FF80
FFF00003FF80
FFF00003FF80
FFF00003FF80
FFF80003FF80
7FF80003FF80
7FFC0003FF80
7FFC0003FF80
7FFE0003FF80
3FFF8003FF80
3FFFFFFFFF80
1FFFFFFFFF80
0FFFFFFFFF80
0FFFFFFFFF80
07FFFFFFFF80
03FFFFFFFF00
01FFFFFFFF80
00FFFFFFFF80
003FFFFFFF80
000FFFFFFF80
0000FFFFFF80
00000003FF80
00000007FF80
0000000FFF80
00003FFFFF80
00007FFFFF80
0000FFFFFF00
0001FFFFFF00
0001FFFFFE00
0001FFFFFE00
0001FFFFFC00
0001FFFFF800
0001FFFFF000
0000FFFFE000
00007FFF8000
00003FFC0000
ENDCHAR
STARTCHAR 007A
ENCODING 122
SWIDTH 460 0
DWIDTH 46 0
BBX 42 41 2 0
BITMAP
0FFFFFFFC000
3FFFFFFFF000
7FFFFFFFFC00
7FFFFFFFFE00
7FFFFFFFFF00
FFFFFFFFFF00
7FFFFFFFFF80
7FFFFFFFFF80
7FFFFFFFFF80
3FFFFFFFFF80
0FFFFFFFFF80
0000007FFF80
000001FFFF80
000007FFFF80
00001FFFFF00
00007FFFFE00
0000FFFFFC00
0003FFFFF800
000FFFFFF000
003FFFFFE000
00FFFFFF8000
01FFFFFF0000
07FFFFFC0000
0FFFFFF00000
1FFFFFE00000
3FFFFF800000
3FFFFE000000
7FFFF8000000
7FFFE0000000
7FFF80000000
FFFFFFFFFC00
7FFFFFFFFF00
7FFFFFFFFF80
7FFFFFFFFF80
7FFFFFFFFF80
3FFFFFFFFFC0
3FFFFFFFFF80
1FFFFFFFFF80
0FFFFFFFFF80
03FFFFFFFF00
00FFFFFFFC00
ENDCHAR
STARTCHAR 007B
ENCODING 123
SWIDTH 360 0
DWIDTH 36 0
BBX 31 70 3 0
BITMAP
00000FE0
00007FF8
0001FFFC
0007FFFC
000FFFFE
003FFFFE
007FFFFE
00FFFFFC
01FFFFFC
01FFFFF8
03FFFFF0
03FFFF00
07FFF000
07FFE000
07FFC000
0FFF8000
0FFF8000
0FFF0000
0FFF0000
0FFF0000
0FFF0000
0FFF0000
0FFF0000
0FFF0000
0FFF0000
0FFF0000
0FFF0000
0FFF0000
0FFF0000
1FFF0000
3FFF0000
7FFF0000
FFFF0000
FFFE0000
FFFE0000
FFFE0000
FFFE0000
FFFF0000
7FFF0000
3FFF0000
1FFF0000
0FFF0000
0FFF0000
0FFF0000
0FFF0000
0FFF0000
0FFF0000
0FFF0000
0FFF0000
0FFF0000
0FFF0000
0FFF0000
0FFF0000
0FFF8000
0FFF8000
07FFC000
07FFE000
07FFF000
03FFFF00
03FFFFF0
01FFFFF8
01FFFFFC
00FFFFFC
007FFFFE
003FFFFE
001FFFFE
0007FFFC
0001FFFC
00007FF8
00000FE0
ENDCHAR
STARTCHAR 007C
ENCODING 124
SWIDTH 170 0
DWIDTH 17 0
BBX 12 100 2 -15
BITMAP
1F00
3FC0
7FE0
FFF0
FFF0
FFF0
FFF0
FFF0
FFF0
FFF0
FFF0
FFF0
FFF0
FFF0
FFF0
FFF0
FFF0
FFF0
FFF0
FFF0
FFF0
FFF0
FFF0
FFF0
FFF0
FFF0
FFF0
FFF0
FFF0
FFF0
FFF0
FFF0
FFF0
FFF0
FFF0
FFF0
FFF0
FFF0
FFF0
FFF0
FFF0
FFF0
FFF0
FFF0
FFF0
FFF0
FFF0
FFF0
FFF0
FFF0
FFF0
FFF0
FFF0
FFF0
FFF0
FFF0
FFF0
FFF0
FFF0
FFF0
FFF0
FFF0
FFF0
FFF0
FFF0
FFF0
FFF0
FFF0
FFF0
FFF0
FFF0
FFF0
FFF0
FFF0
FFF0
FFF0
FFF0
FFF0
FFF0
FFF0
FFF0
FFF0
FFF0
FFF0
FFF0
FFF0
FFF0
FFF0
FFF0
FFF0
FFF0
FFF0
FFF0
FFF0
FFF0
FFF0
FFF0
7FE0
3FC0
1F00
ENDCHAR
STARTCHAR 007D
ENCODING 125
SWIDTH 360 0
DWIDTH 36 0
BBX 31 70 2 0
BITMAP
0FE00000
1FFC0000
3FFF8000
7FFFC000
7FFFF000
7FFFF800
7FFFF800
7FFFFC00
7FFFFE00
3FFFFF00
1FFFFF00
00FFFF80
001FFF80
0007FF80
0003FF80
0003FFC0
0001FFC0
0001FFC0
0001FFC0
0001FFC0
0001FFC0
0001FFC0
0001FFC0
0001FFC0
0001FFC0
0001FFC0
0001FFC0
0001FFC0
0001FFC0
0001FFE0
0001FFF8
0001FFFC
0001FFFC
0001FFFE
0000FFFE
0000FFFE
0001FFFE
0001FFFE
0001FFFC
0001FFF8
0001FFF0
0001FFE0
0001FFE0
0001FFE0
0001FFE0
0001FFE0
0001FFE0
0001FFE0
0001FFE0
0001FFE0
0001FFE0
0003FFE0
0003FFE0
0003FFE0
0003FFE0
0007FFC0
000FFFC0
001FFFC0
01FFFF80
1FFFFF80
7FFFFF00
7FFFFE00
FFFFFE00
FFFFFC00
FFFFF800
FFFFE000
FFFFC000
7FFF0000
3FFC0000
1FC00000
ENDCHAR
STARTCHAR 007E
ENCODING 126
SWIDTH 460 0
DWIDTH 46 0
BBX 42 21 2 25
BITMAP
000FE0007C00
007FFC00FF00
01FFFE01FF00
03FFFF03FF80
0FFFFF83FF80
0FFFFFC3FFC0
1FFFFFC3FF80
3FFFFFC3FF80
3FFFFFE7FF80
7FFFFFFFFF80
7FFFFFFFFF80
FFFFFFFFFF80
FFF9FFFFFF00
FFF0FFFFFF00
FFF0FFFFFE00
FFF0FFFFFC00
FFF07FFFF800
FFF03FFFF000
7FE01FFFE000
3FC00FFF8000
0F8001FC0000
ENDCHAR
STARTCHAR 00C6
ENCODING 198
SWIDTH 660 0
DWIDTH 66 0
BBX 62 70 2 0
BITMAP
0000FFF87FFFFFC0
000FFFFFFFFFFFF0
003FFFFFFFFFFFF8
007FFFFFFFFFFFF8
01FFFFFFFFFFFFFC
03FFFFFFFFFFFFFC
07FFFFFFFFFFFFFC
0FFFFFFFFFFFFFF8
0FFFFFFFFFFFFFF8
1FFFFFFFFFFFFFF0
3FFFFFFFFFFFFFC0
3FFF807FF8000000
7FFE007FF8000000
7FFC007FF8000000
7FF8007FF8000000
7FF8007FF8000000
FFF8007FF8000000
FFF0007FF8000000
FFF0007FF8000000
FFF0007FF8000000
FFF0007FF8000000
FFF0007FF8000000
FFF0007FF8000000
FFF0007FF8000000
FFF0007FF8000000
FFF0007FF8000000
FFF0007FF8000000
FFF0007FF8000000
FFF0007FF8000000
FFFFFFFFFFFF0000
FFFFFFFFFFFFC000
FFFFFFFFFFFFE000
FFFFFFFFFFFFE000
7FFFFFFFFFFFF000
7FFFFFFFFFFFF000
7FFFFFFFFFFFF000
7FFFFFFFFFFFE000
FFFFFFFFFFFFE000
FFFFFFFFFFFFC000
FFFFFFFFFFFF0000
FFF0007FF8000000
FFF0007FF8000000
FFF0007FF8000000
FFF0007FF8000000
FFF0007FF8000000
FFF0007FF8000000
FFF0007FF8000000
FFF0007FF8000000
FFF0007FF8000000
FFF0007FF8000000
FFF0007FF8000000
FFF0007FF8000000
FFF0007FF8000000
FFF0007FF8000000
FFF0007FF8000000
FFF0007FF8000000
FFF0007FF8000000
FFF0007FF8000000
FFF0007FF8000000
FFF0007FFFFFFFC0
FFF0007FFFFFFFF0
FFF0007FFFFFFFF8
FFF0007FFFFFFFF8
FFF0003FFFFFFFFC
FFF0003FFFFFFFFC
FFF0001FFFFFFFFC
FFE0000FFFFFFFF8
7FE00007FFFFFFF8
3FC00003FFFFFFF0
0F0000007FFFFFC0
ENDCHAR
STARTCHAR 00E6
ENCODING 230
SWIDTH 660 0
DWIDTH 66 0
BBX 61 41 2 0
BITMAP
0003FF800FFFE000
000FFFF03FFFF800
001FFFFCFFFFFE00
001FFFFFFFFFFF00
003FFFFFFFFFFF80
003FFFFFFFFFFFC0
003FFFFFFFFFFFE0
001FFFFFFFFFFFE0
001FFFFFFFFFFFF0
000FFFFFFFFFFFF0
0003FFFFFFFFFFF0
000001FFFE00FFF8
000000FFF8007FF8
0000007FF8007FF8
0000007FF8003FF8
00FFFFFFFFFFFFF8
03FFFFFFFFFFFFF8
0FFFFFFFFFFFFFF8
1FFFFFFFFFFFFFF8
3FFFFFFFFFFFFFF8
3FFFFFFFFFFFFFF0
7FFFFFFFFFFFFFF0
7FFFFFFFFFFFFFE0
7FFFFFFFFFFFFFC0
7FFFFFFFFFFFFF80
FFFFFFFFFFFFFF00
FFFFFFFFFFFFFC00
7FF0007FF8000000
7FF8007FF8000000
7FFC007FFC000000
7FFFFFFFFFFF0000
3FFFFFFFFFFFC000
3FFFFFFFFFFFE000
1FFFFFFFFFFFE000
1FFFFFFFFFFFE000
0FFFFFFFFFFFE000
07FFFFFFFFFFE000
03FFFFFFFFFFE000
01FFFFFFFFFFC000
007FFFFE7FFFC000
000FFFF80FFF0000
ENDCHAR
STARTCHAR E000
ENCODING 57344
SWIDTH 0 0
DWIDTH 0 0
BBX 0 0 0 0
BITMAP
ENDCHAR
STARTCHAR E001
ENCODING 57345
SWIDTH 500 0
DWIDTH 50 0
BBX 0 0 0 0
BITMAP
ENDCHAR
ENDFONT
